<svg width="38" height="38" viewBox="0 0 38 38" fill="none" xmlns="http://www.w3.org/2000/svg">
<g clip-path="url(#clip0_21_4452)">
<path d="M15.3438 16.6152C15.3438 17.2301 14.8451 17.7285 14.2305 17.7285C13.6156 17.7285 13.1172 17.2301 13.1172 16.6152C13.1172 16.0003 13.6156 15.502 14.2305 15.502C14.8451 15.502 15.3438 16.0003 15.3438 16.6152Z" fill="black"/>
<path d="M15.3438 16.6152C15.3438 17.2301 14.8451 17.7285 14.2305 17.7285C13.6156 17.7285 13.1172 17.2301 13.1172 16.6152C13.1172 16.0003 13.6156 15.502 14.2305 15.502C14.8451 15.502 15.3438 16.0003 15.3438 16.6152Z" fill="url(#paint0_linear_21_4452)"/>
<path d="M31.5206 8.34729H28.4605V6.47928C28.4605 2.90091 25.5653 0 21.9812 0H6.47936C2.90091 0 0 2.89482 0 6.47928V27.3473C0 28.278 1.09124 28.8146 1.82593 28.2025L8.67111 22.4981H9.53969V25.5585C9.53969 29.137 12.4345 32.0379 16.019 32.0379H29.3291L36.174 37.7419C36.3741 37.9088 36.6264 38.0001 36.8869 38C37.4989 38 37.9999 37.5034 37.9999 36.8867V14.8264C37.9999 11.2479 35.1051 8.34729 31.5206 8.34729ZM8.26773 20.2715C8.00734 20.2716 7.7552 20.3629 7.55516 20.5295L2.22656 24.9702V6.47936C2.22656 4.13041 4.1267 2.22656 6.47928 2.22656H21.9812C24.3298 2.22656 26.2339 4.1267 26.2339 6.47928V16.019C26.2339 18.3639 24.326 20.2715 21.9812 20.2715H8.26773ZM35.7734 34.5099L30.4447 30.0693C30.2447 29.9026 29.9925 29.8113 29.7321 29.8112H16.0187C14.8828 29.8112 13.8148 29.3688 13.0117 28.5655C12.2084 27.7624 11.7659 26.6944 11.7659 25.5584V22.4981H21.9809C23.3737 22.4981 24.6652 22.0563 25.7228 21.3056H30.9242C31.5391 21.3056 32.0375 20.8073 32.0375 20.1924C32.0375 19.5778 31.5391 19.0791 30.9242 19.0791H27.6908C28.1143 18.2926 28.3694 17.4265 28.4397 16.536H30.9242C31.5391 16.536 32.0375 16.0376 32.0375 15.4227C32.0375 14.8078 31.5391 14.3094 30.9242 14.3094H28.4602V10.5738H31.5206C32.6569 10.5738 33.7246 11.016 34.528 11.8193C35.3309 12.6224 35.7734 13.6904 35.7734 14.8264V34.5099Z" fill="black"/>
<path d="M31.5206 8.34729H28.4605V6.47928C28.4605 2.90091 25.5653 0 21.9812 0H6.47936C2.90091 0 0 2.89482 0 6.47928V27.3473C0 28.278 1.09124 28.8146 1.82593 28.2025L8.67111 22.4981H9.53969V25.5585C9.53969 29.137 12.4345 32.0379 16.019 32.0379H29.3291L36.174 37.7419C36.3741 37.9088 36.6264 38.0001 36.8869 38C37.4989 38 37.9999 37.5034 37.9999 36.8867V14.8264C37.9999 11.2479 35.1051 8.34729 31.5206 8.34729ZM8.26773 20.2715C8.00734 20.2716 7.7552 20.3629 7.55516 20.5295L2.22656 24.9702V6.47936C2.22656 4.13041 4.1267 2.22656 6.47928 2.22656H21.9812C24.3298 2.22656 26.2339 4.1267 26.2339 6.47928V16.019C26.2339 18.3639 24.326 20.2715 21.9812 20.2715H8.26773ZM35.7734 34.5099L30.4447 30.0693C30.2447 29.9026 29.9925 29.8113 29.7321 29.8112H16.0187C14.8828 29.8112 13.8148 29.3688 13.0117 28.5655C12.2084 27.7624 11.7659 26.6944 11.7659 25.5584V22.4981H21.9809C23.3737 22.4981 24.6652 22.0563 25.7228 21.3056H30.9242C31.5391 21.3056 32.0375 20.8073 32.0375 20.1924C32.0375 19.5778 31.5391 19.0791 30.9242 19.0791H27.6908C28.1143 18.2926 28.3694 17.4265 28.4397 16.536H30.9242C31.5391 16.536 32.0375 16.0376 32.0375 15.4227C32.0375 14.8078 31.5391 14.3094 30.9242 14.3094H28.4602V10.5738H31.5206C32.6569 10.5738 33.7246 11.016 34.528 11.8193C35.3309 12.6224 35.7734 13.6904 35.7734 14.8264V34.5099Z" fill="url(#paint1_linear_21_4452)"/>
<path d="M12.3623 8.86284C12.3623 8.36417 12.5566 7.8957 12.9091 7.54286C13.2617 7.19032 13.7305 6.99609 14.2302 6.99609C15.26 6.99609 16.0982 7.83425 16.0982 8.86403C16.0982 9.89411 15.26 10.732 14.2302 10.732C13.6153 10.732 13.117 11.2303 13.117 11.8453V13.0376C13.117 13.6523 13.6153 14.1509 14.2302 14.1509C14.8449 14.1509 15.3435 13.6523 15.3435 13.0376V12.8046C17.0619 12.3184 18.3244 10.736 18.3244 8.86403C18.3244 6.60615 16.4878 4.76953 14.2291 4.76953C13.1358 4.76953 12.1078 5.1954 11.3345 5.96831C10.5617 6.74152 10.1357 7.7696 10.1357 8.86255V8.86373C10.1357 9.47864 10.6341 9.97642 11.249 9.97642C11.8639 9.97642 12.3623 9.47775 12.3623 8.86284ZM30.9246 23.8486H16.6152C16.0002 23.8486 15.5019 24.3473 15.5019 24.9619C15.5019 25.5768 16.0002 26.0752 16.6152 26.0752H30.9246C31.5392 26.0752 32.0378 25.5768 32.0378 24.9619C32.0378 24.3473 31.5392 23.8486 30.9246 23.8486Z" fill="black"/>
<path d="M12.3623 8.86284C12.3623 8.36417 12.5566 7.8957 12.9091 7.54286C13.2617 7.19032 13.7305 6.99609 14.2302 6.99609C15.26 6.99609 16.0982 7.83425 16.0982 8.86403C16.0982 9.89411 15.26 10.732 14.2302 10.732C13.6153 10.732 13.117 11.2303 13.117 11.8453V13.0376C13.117 13.6523 13.6153 14.1509 14.2302 14.1509C14.8449 14.1509 15.3435 13.6523 15.3435 13.0376V12.8046C17.0619 12.3184 18.3244 10.736 18.3244 8.86403C18.3244 6.60615 16.4878 4.76953 14.2291 4.76953C13.1358 4.76953 12.1078 5.1954 11.3345 5.96831C10.5617 6.74152 10.1357 7.7696 10.1357 8.86255V8.86373C10.1357 9.47864 10.6341 9.97642 11.249 9.97642C11.8639 9.97642 12.3623 9.47775 12.3623 8.86284ZM30.9246 23.8486H16.6152C16.0002 23.8486 15.5019 24.3473 15.5019 24.9619C15.5019 25.5768 16.0002 26.0752 16.6152 26.0752H30.9246C31.5392 26.0752 32.0378 25.5768 32.0378 24.9619C32.0378 24.3473 31.5392 23.8486 30.9246 23.8486Z" fill="url(#paint2_linear_21_4452)"/>
</g>
<defs>
<linearGradient id="paint0_linear_21_4452" x1="14.0071" y1="16.0004" x2="14.7986" y2="16.0979" gradientUnits="userSpaceOnUse">
<stop stop-color="white"/>
<stop offset="1" stop-color="#999999"/>
</linearGradient>
<linearGradient id="paint1_linear_21_4452" x1="15.1884" y1="8.50745" x2="28.6959" y2="10.1714" gradientUnits="userSpaceOnUse">
<stop stop-color="white"/>
<stop offset="1" stop-color="#999999"/>
</linearGradient>
<linearGradient id="paint2_linear_21_4452" x1="18.8899" y1="9.53945" x2="26.6687" y2="10.5245" gradientUnits="userSpaceOnUse">
<stop stop-color="white"/>
<stop offset="1" stop-color="#999999"/>
</linearGradient>
<clipPath id="clip0_21_4452">
<rect width="38" height="38" fill="white"/>
</clipPath>
</defs>
</svg>
