<svg width="38" height="38" viewBox="0 0 38 38" fill="none" xmlns="http://www.w3.org/2000/svg">
<path fill-rule="evenodd" clip-rule="evenodd" d="M6.74323 15.8402L6.74449 21.0346C6.74436 21.1258 6.72448 21.2159 6.68624 21.2987C6.64799 21.3814 6.59227 21.455 6.52292 21.5142C5.94507 22.0052 5.28665 22.2545 4.61942 22.2545C3.78979 22.2545 3.01429 21.8743 2.39237 21.202C1.55896 20.3019 1 18.8554 1 17.2188C1 15.5821 1.55896 14.1356 2.39237 13.2355C3.01429 12.5632 3.78979 12.183 4.61942 12.183C5.16705 12.183 5.70965 12.3517 6.20567 12.6841C8.05755 7.61942 12.9221 4 18.625 4C24.3279 4 29.1924 7.61942 31.0443 12.6841C31.5111 12.3622 32.0636 12.1877 32.6306 12.183C33.4602 12.183 34.2357 12.5632 34.8576 13.2355C35.691 14.1356 36.25 15.5821 36.25 17.2188C36.25 18.8554 35.691 20.3019 34.8576 21.202C34.2357 21.8743 33.4602 22.2545 32.6306 22.2545C32.0829 22.2545 31.5403 22.0858 31.0443 21.7534C29.2856 26.5613 24.8152 30.0649 19.4886 30.4098C19.5088 30.5231 19.5201 30.6377 19.5201 30.7522C19.5201 31.3389 19.2557 31.889 18.7798 32.3297C18.1756 32.8886 17.2062 33.2701 16.1071 33.2701C15.0081 33.2701 14.0387 32.8886 13.4344 32.3297C12.9586 31.889 12.6942 31.3389 12.6942 30.7522C12.6942 30.2789 12.8692 29.8106 13.2179 29.4001C13.277 29.3306 13.3505 29.2747 13.4333 29.2365C13.5161 29.1982 13.6063 29.1785 13.6976 29.1786H18.5167C18.5348 29.1788 18.5529 29.1796 18.5709 29.1811C18.5889 29.1796 18.6069 29.1788 18.625 29.1786C24.7598 29.1786 29.8219 24.5495 30.5068 18.5973V15.8402C29.8219 9.88801 24.7598 5.25893 18.625 5.25893C12.4902 5.25893 7.42809 9.88801 6.74323 15.8402ZM5.48556 20.7211L5.4843 13.7164C5.22908 13.5423 4.92836 13.4468 4.61942 13.442C4.12844 13.442 3.68404 13.6938 3.31643 14.0903C2.6643 14.7953 2.25893 15.9372 2.25893 17.2188C2.25893 18.5003 2.6643 19.6422 3.31643 20.3472C3.68404 20.7437 4.12844 20.9955 4.61942 20.9955C4.91904 20.9955 5.21238 20.8986 5.48556 20.7211ZM31.7657 18.6653V20.7211C32.0376 20.8986 32.331 20.9955 32.6306 20.9955C33.1216 20.9955 33.566 20.7437 33.9336 20.3472C34.5857 19.6422 34.9911 18.5003 34.9911 17.2188C34.9911 15.9372 34.5857 14.7953 33.9336 14.0903C33.566 13.6938 33.1216 13.442 32.6306 13.442C32.331 13.442 32.0376 13.5389 31.7657 13.7164V15.771V18.6653ZM14.0299 30.4375C13.9806 30.5352 13.9543 30.6428 13.9531 30.7522C13.9531 31.077 14.1785 31.3527 14.4932 31.5668C14.9061 31.8462 15.4777 32.0112 16.1071 32.0112C16.7366 32.0112 17.3082 31.8462 17.7211 31.5668C18.0358 31.3527 18.2612 31.077 18.2612 30.7522C18.2598 30.6428 18.2335 30.5352 18.1844 30.4375H14.0299ZM16.6661 25.8122C16.4211 25.8973 16.1808 25.9953 15.946 26.1055C14.8344 26.6544 13.3022 27.6465 13.3022 27.6465C13.1941 27.7166 13.0671 27.7518 12.9384 27.7474C12.8096 27.743 12.6853 27.6992 12.5822 27.622C12.4791 27.5447 12.4022 27.4376 12.3619 27.3153C12.3216 27.1929 12.3198 27.0611 12.3568 26.9377C12.3568 26.9377 12.805 25.4521 12.9044 24.4211C12.9159 24.2543 12.9159 24.0868 12.9044 23.92C11.9342 23.0938 11.1552 22.0666 10.6213 20.9095C10.0874 19.7524 9.81146 18.4931 9.8125 17.2188C9.8125 12.3555 13.7618 8.40625 18.625 8.40625C23.4882 8.40625 27.4375 12.3555 27.4375 17.2188C27.4368 18.5423 27.1381 19.8487 26.5636 21.041C25.9891 22.2334 25.1536 23.2812 24.119 24.1066C23.0844 24.932 21.8772 25.5139 20.587 25.8092C19.2968 26.1044 17.9567 26.1055 16.6661 25.8122ZM13.8008 23.03C13.9997 23.1949 14.1709 23.5436 14.1797 24.0409C14.1885 24.5079 14.0778 25.1676 13.9493 25.7719C14.5939 25.3905 15.3442 24.9725 15.8831 24.7497C16.33 24.5646 16.6963 24.5256 16.8814 24.5696C17.9909 24.8321 19.1453 24.8402 20.2583 24.5932C21.3714 24.3462 22.4141 23.8506 23.3084 23.1435C24.2027 22.4364 24.9255 21.5361 25.4225 20.5101C25.9196 19.484 26.178 18.3588 26.1786 17.2188C26.1786 13.0504 22.7933 9.66518 18.625 9.66518C14.4567 9.66518 11.0714 13.0504 11.0714 17.2188C11.0707 18.3285 11.315 19.4248 11.7868 20.4293C12.2586 21.4338 12.9463 22.3218 13.8008 23.03ZM18.625 15.3304C18.8731 15.3304 19.1187 15.3794 19.3478 15.4744C19.577 15.5694 19.7852 15.7086 19.9606 15.8841C20.1359 16.0596 20.275 16.2678 20.3698 16.4971C20.4647 16.7263 20.5135 16.9719 20.5134 17.22C20.5133 17.4681 20.4644 17.7137 20.3694 17.9429C20.2743 18.172 20.1351 18.3802 19.9597 18.5556C19.7842 18.7309 19.5759 18.87 19.3467 18.9648C19.1175 19.0597 18.8718 19.1085 18.6237 19.1084C18.1227 19.1082 17.6423 18.9091 17.2882 18.5547C16.934 18.2003 16.7352 17.7197 16.7353 17.2188C16.7355 16.7177 16.9347 16.2373 17.2891 15.8832C17.6435 15.5291 18.124 15.3302 18.625 15.3304ZM18.625 16.5893C18.4581 16.5893 18.2979 16.6556 18.1799 16.7737C18.0619 16.8917 17.9955 17.0518 17.9955 17.2188C17.9955 17.3857 18.0619 17.5458 18.1799 17.6638C18.2979 17.7819 18.4581 17.8482 18.625 17.8482C18.7919 17.8482 18.9521 17.7819 19.0701 17.6638C19.1881 17.5458 19.2545 17.3857 19.2545 17.2188C19.2545 17.0518 19.1881 16.8917 19.0701 16.7737C18.9521 16.6556 18.7919 16.5893 18.625 16.5893ZM14.2188 15.3304C14.4668 15.3304 14.7124 15.3794 14.9416 15.4744C15.1708 15.5694 15.379 15.7086 15.5543 15.8841C15.7297 16.0596 15.8687 16.2678 15.9636 16.4971C16.0584 16.7263 16.1072 16.9719 16.1071 17.22C16.1071 17.4681 16.0581 17.7137 15.9631 17.9429C15.8681 18.172 15.7289 18.3802 15.5534 18.5556C15.3779 18.7309 15.1697 18.87 14.9404 18.9648C14.7112 19.0597 14.4656 19.1085 14.2175 19.1084C13.7165 19.1082 13.2361 18.9091 12.8819 18.5547C12.5278 18.2003 12.3289 17.7197 12.3291 17.2188C12.3293 16.7177 12.5284 16.2373 12.8828 15.8832C13.2372 15.5291 13.7177 15.3302 14.2188 15.3304ZM14.2188 16.5893C14.0518 16.5893 13.8917 16.6556 13.7737 16.7737C13.6556 16.8917 13.5893 17.0518 13.5893 17.2188C13.5893 17.3857 13.6556 17.5458 13.7737 17.6638C13.8917 17.7819 14.0518 17.8482 14.2188 17.8482C14.3857 17.8482 14.5458 17.7819 14.6638 17.6638C14.7819 17.5458 14.8482 17.3857 14.8482 17.2188C14.8482 17.0518 14.7819 16.8917 14.6638 16.7737C14.5458 16.6556 14.3857 16.5893 14.2188 16.5893ZM23.0312 15.3304C23.2793 15.3304 23.5249 15.3794 23.7541 15.4744C23.9833 15.5694 24.1915 15.7086 24.3668 15.8841C24.5422 16.0596 24.6812 16.2678 24.7761 16.4971C24.8709 16.7263 24.9197 16.9719 24.9196 17.22C24.9196 17.4681 24.8706 17.7137 24.7756 17.9429C24.6806 18.172 24.5414 18.3802 24.3659 18.5556C24.1904 18.7309 23.9822 18.87 23.7529 18.9648C23.5237 19.0597 23.2781 19.1085 23.03 19.1084C22.529 19.1082 22.0486 18.9091 21.6944 18.5547C21.3403 18.2003 21.1414 17.7197 21.1416 17.2188C21.1418 16.7177 21.3409 16.2373 21.6953 15.8832C22.0497 15.5291 22.5302 15.3302 23.0312 15.3304ZM23.0312 16.5893C22.8643 16.5893 22.7042 16.6556 22.5862 16.7737C22.4681 16.8917 22.4018 17.0518 22.4018 17.2188C22.4018 17.3857 22.4681 17.5458 22.5862 17.6638C22.7042 17.7819 22.8643 17.8482 23.0312 17.8482C23.1982 17.8482 23.3583 17.7819 23.4763 17.6638C23.5944 17.5458 23.6607 17.3857 23.6607 17.2188C23.6607 17.0518 23.5944 16.8917 23.4763 16.7737C23.3583 16.6556 23.1982 16.5893 23.0312 16.5893Z" fill="url(#paint0_linear_21_4458)"/>
<defs>
<linearGradient id="paint0_linear_21_4458" x1="15.0893" y1="10.553" x2="27.5355" y2="12.3995" gradientUnits="userSpaceOnUse">
<stop stop-color="white"/>
<stop offset="1" stop-color="#999999"/>
</linearGradient>
</defs>
</svg>
