<svg width="120" height="120" viewBox="0 0 120 120" fill="none" xmlns="http://www.w3.org/2000/svg">
<rect width="120" height="120" rx="60" fill="white" fill-opacity="0.2"/>
<path d="M68.83 48.7322C68.6311 46.727 67.7777 45.1693 66.2696 44.0589C64.7616 42.9486 62.7149 42.3935 60.1297 42.3935C58.3731 42.3935 56.8899 42.642 55.6801 43.1392C54.4704 43.6198 53.5423 44.291 52.896 45.1527C52.2663 46.0144 51.9514 46.9922 51.9514 48.0859C51.9183 48.9974 52.1089 49.7929 52.5232 50.4723C52.954 51.1518 53.5423 51.7401 54.2881 52.2372C55.0338 52.7178 55.8956 53.1404 56.8733 53.505C57.8511 53.853 58.8951 54.1513 60.0054 54.3999L64.5793 55.4936C66.7999 55.9908 68.8383 56.6536 70.6943 57.4822C72.5504 58.3108 74.1579 59.33 75.5168 60.5398C76.8757 61.7495 77.928 63.1747 78.6737 64.8153C79.4361 66.456 79.8255 68.3369 79.8421 70.4581C79.8255 73.5736 79.03 76.2749 77.4557 78.5618C75.8979 80.8321 73.6441 82.5971 70.6943 83.8565C67.7611 85.0994 64.223 85.7209 60.08 85.7209C55.9701 85.7209 52.3906 85.0911 49.3414 83.8317C46.3087 82.5722 43.9389 80.7079 42.232 78.2386C40.5416 75.7528 39.655 72.6787 39.5722 69.0163H49.9877C50.1037 70.7232 50.5925 72.1484 51.4543 73.2919C52.3326 74.4188 53.5009 75.2723 54.9593 75.8523C56.4342 76.4157 58.0996 76.6974 59.9557 76.6974C61.7786 76.6974 63.3612 76.4323 64.7036 75.902C66.0625 75.3717 67.1148 74.6342 67.8605 73.6896C68.6063 72.745 68.9791 71.6596 68.9791 70.4332C68.9791 69.2898 68.6394 68.3286 67.96 67.5497C67.2971 66.7708 66.3193 66.108 65.0267 65.5611C63.7507 65.0142 62.1846 64.517 60.3286 64.0696L54.7852 62.6776C50.4931 61.6335 47.1041 60.0012 44.6183 57.7805C42.1325 55.5599 40.8979 52.5687 40.9145 48.8068C40.8979 45.7244 41.7182 43.0315 43.3754 40.728C45.0492 38.4245 47.3444 36.6264 50.2611 35.3338C53.1778 34.0412 56.4922 33.3949 60.2043 33.3949C63.9827 33.3949 67.2805 34.0412 70.0977 35.3338C72.9316 36.6264 75.1356 38.4245 76.71 40.728C78.2843 43.0315 79.0963 45.6996 79.146 48.7322H68.83Z" fill="white"/>
</svg>
