<svg width="36" height="36" viewBox="0 0 36 36" fill="none" xmlns="http://www.w3.org/2000/svg">
<g clip-path="url(#clip0_34_6289)">
<path d="M30.725 5.27495C23.6924 -1.75787 12.3087 -1.75877 5.27492 5.27495C-1.75782 12.3075 -1.75879 23.6914 5.27492 30.725C12.3077 37.7577 23.6913 37.7588 30.725 30.725C37.7579 23.6922 37.7587 12.3085 30.725 5.27495ZM18 34.7962C8.73854 34.7962 1.20379 27.2614 1.20379 18C1.20379 8.7385 8.73854 1.20374 18 1.20374C27.2615 1.20374 34.7962 8.7385 34.7962 18C34.7962 27.2614 27.2615 34.7962 18 34.7962Z" fill="url(#paint0_linear_34_6289)"/>
<path d="M18.0001 3.11707C9.79369 3.11707 3.11719 9.79349 3.11719 18C3.11719 26.2065 9.79369 32.8829 18.0001 32.8829C23.0175 32.8829 27.6647 30.3794 30.4314 26.1862C30.5162 26.0534 30.5453 25.8926 30.5126 25.7385C30.4798 25.5844 30.3877 25.4493 30.2562 25.3625C30.1246 25.2758 29.9643 25.2442 29.8097 25.2747C29.6551 25.3052 29.5187 25.3953 29.43 25.5255C26.8859 29.3812 22.6132 31.6831 18.0001 31.6831C10.4552 31.6831 4.31692 25.5449 4.31692 17.9999C4.31692 10.455 10.4552 4.3168 18.0001 4.3168C27.2845 4.3168 33.908 13.43 31.0029 22.2737C30.9783 22.3485 30.9687 22.4275 30.9746 22.506C30.9805 22.5846 31.0019 22.6612 31.0374 22.7315C31.073 22.8018 31.122 22.8645 31.1817 22.9158C31.2415 22.9672 31.3108 23.0063 31.3856 23.0309C31.4604 23.0554 31.5394 23.0651 31.618 23.0591C31.6965 23.0532 31.7731 23.0319 31.8435 22.9963C31.9138 22.9608 31.9764 22.9117 32.0277 22.852C32.0791 22.7923 32.1182 22.723 32.1428 22.6481C35.3073 13.0129 28.0845 3.11707 18.0001 3.11707Z" fill="url(#paint1_linear_34_6289)"/>
<path d="M13.3946 8.44451C13.6808 8.44451 13.7995 8.24341 14.9698 7.89308C15.2871 7.79801 15.4674 7.46373 15.3724 7.1464C15.2774 6.82907 14.9434 6.64904 14.6257 6.74374C14.1206 6.89511 13.6263 7.08042 13.1462 7.29839C13.0013 7.36419 12.8886 7.48483 12.8327 7.63378C12.7768 7.78272 12.7823 7.94777 12.8481 8.09262C12.8958 8.19759 12.9726 8.28661 13.0695 8.34902C13.1665 8.41142 13.2793 8.44458 13.3946 8.44451ZM11.3862 9.00448C11.2852 8.88167 11.1394 8.80402 10.9811 8.7886C10.8228 8.77317 10.6648 8.82124 10.5419 8.92223C9.90785 9.44392 9.32979 10.0302 8.8171 10.6716C8.50007 11.0685 8.79063 11.6459 9.28537 11.6459C9.37547 11.646 9.46443 11.6259 9.54564 11.5868C9.62685 11.5478 9.6982 11.491 9.75439 11.4205C10.215 10.8443 10.7343 10.3175 11.304 9.84879C11.4269 9.74774 11.5045 9.60201 11.52 9.44367C11.5354 9.28534 11.4873 9.12736 11.3862 9.00448ZM8.02018 12.9895C7.948 12.9579 7.87031 12.9408 7.79155 12.9393C7.71279 12.9378 7.63449 12.9518 7.56114 12.9805C7.48778 13.0092 7.42081 13.0521 7.36404 13.1067C7.30728 13.1614 7.26183 13.2266 7.2303 13.2988C7.01922 13.7821 6.84103 14.279 6.69695 14.7862C6.5883 15.169 6.87623 15.5501 7.27432 15.5501C7.4048 15.5499 7.5317 15.5073 7.63577 15.4286C7.73985 15.3499 7.81544 15.2394 7.85109 15.1139C7.98034 14.6588 8.14019 14.2129 8.32956 13.7794C8.36112 13.7072 8.37815 13.6295 8.37968 13.5508C8.38121 13.472 8.36721 13.3937 8.33848 13.3204C8.30975 13.247 8.26685 13.18 8.21224 13.1233C8.15763 13.0665 8.09236 13.021 8.02018 12.9895ZM22.3575 8.3906C22.657 8.52692 23.0138 8.39607 23.1517 8.09254C23.1843 8.02082 23.2024 7.94339 23.2051 7.86466C23.2077 7.78593 23.1949 7.70744 23.1672 7.63369C23.1395 7.55994 23.0976 7.49236 23.0438 7.43482C22.99 7.37727 22.9254 7.33089 22.8536 7.29832C22.3735 7.0803 21.8792 6.895 21.3741 6.74367C21.2218 6.69864 21.058 6.71579 20.9183 6.79137C20.7787 6.86695 20.6748 6.99479 20.6292 7.14688C20.5837 7.29897 20.6003 7.46291 20.6755 7.60277C20.7506 7.74262 20.8781 7.84699 21.0301 7.89301C21.4832 8.02883 21.9267 8.19507 22.3575 8.3906ZM27.1829 10.6716C26.6701 10.0302 26.092 9.44394 25.458 8.92223C25.3351 8.82116 25.1771 8.77305 25.0187 8.78848C24.8604 8.8039 24.7146 8.8816 24.6136 9.00448C24.5125 9.12736 24.4644 9.28536 24.4798 9.44371C24.4952 9.60207 24.5729 9.74781 24.6958 9.84887C25.2655 10.3176 25.7849 10.8443 26.2456 11.4206C26.346 11.5414 26.4899 11.618 26.6462 11.6339C26.8024 11.6498 26.9587 11.6037 27.0815 11.5057C27.2042 11.4076 27.2836 11.2653 27.3025 11.1093C27.3215 10.9534 27.2785 10.7962 27.1829 10.6716ZM29.3029 14.7862C29.1588 14.279 28.9806 13.782 28.7695 13.2988C28.7058 13.153 28.5867 13.0385 28.4386 12.9805C28.2905 12.9225 28.1253 12.9257 27.9796 12.9895C27.8338 13.0532 27.7193 13.1722 27.6613 13.3204C27.6033 13.4685 27.6065 13.6336 27.6703 13.7794C27.8597 14.2129 28.0196 14.6587 28.1488 15.1138C28.1923 15.2669 28.2947 15.3964 28.4337 15.4739C28.5726 15.5514 28.7366 15.5705 28.8897 15.5271C29.0427 15.4836 29.1722 15.3812 29.2497 15.2422C29.3272 15.1033 29.3464 14.9393 29.3029 14.7862ZM13.6423 27.6093C13.3408 27.4721 12.9851 27.6057 12.8481 27.9074C12.7823 28.0522 12.7768 28.2173 12.8327 28.3662C12.8886 28.5151 13.0013 28.6358 13.1462 28.7016C13.6263 28.9196 14.1206 29.1049 14.6257 29.2562C14.7013 29.2791 14.7806 29.2869 14.8592 29.279C14.9377 29.2712 15.0139 29.2479 15.0835 29.2106C15.153 29.1732 15.2145 29.1225 15.2644 29.0613C15.3143 29.0002 15.3516 28.9297 15.3743 28.8541C15.3969 28.7785 15.4044 28.6992 15.3963 28.6206C15.3882 28.5421 15.3647 28.466 15.3271 28.3965C15.2896 28.3271 15.2386 28.2658 15.1773 28.2161C15.116 28.1664 15.0455 28.1293 14.9698 28.1069C14.5166 27.9711 14.0731 27.8049 13.6423 27.6093ZM11.304 26.1511C10.7343 25.6824 10.215 25.1556 9.75439 24.5794C9.70521 24.5178 9.6444 24.4666 9.57541 24.4285C9.50643 24.3905 9.43063 24.3664 9.35234 24.3577C9.27405 24.3489 9.1948 24.3557 9.11912 24.3776C9.04345 24.3995 8.97282 24.436 8.91128 24.4852C8.84973 24.5344 8.79848 24.5952 8.76044 24.6642C8.7224 24.7332 8.69832 24.809 8.68957 24.8873C8.68083 24.9655 8.68759 25.0448 8.70947 25.1205C8.73135 25.1961 8.76792 25.2668 8.8171 25.3283C9.32979 25.9697 9.90785 26.556 10.5419 27.0777C10.665 27.1771 10.8223 27.224 10.9797 27.208C11.1372 27.192 11.2819 27.1144 11.3824 26.9922C11.4829 26.87 11.531 26.7131 11.5164 26.5555C11.5017 26.398 11.4253 26.2526 11.304 26.1511ZM7.85102 20.8861C7.80758 20.733 7.70513 20.6035 7.5662 20.526C7.42726 20.4485 7.26323 20.4294 7.11018 20.4728C6.95713 20.5162 6.8276 20.6187 6.75009 20.7576C6.67259 20.8966 6.65344 21.0606 6.69688 21.2137C6.84096 21.7209 7.01915 22.2178 7.23023 22.7011C7.27695 22.808 7.35386 22.899 7.45154 22.9629C7.54923 23.0268 7.66343 23.0609 7.78016 23.0608C8.21018 23.0608 8.50314 22.6177 8.32948 22.2206C8.14015 21.787 7.98029 21.3412 7.85102 20.8861ZM22.3575 27.6093C21.9267 27.8048 21.4832 27.9711 21.0301 28.1069C20.8781 28.1529 20.7506 28.2573 20.6755 28.3971C20.6003 28.537 20.5837 28.7009 20.6292 28.853C20.6748 29.0051 20.7787 29.1329 20.9183 29.2085C21.058 29.2841 21.2218 29.3013 21.3741 29.2562C21.8792 29.1049 22.3735 28.9196 22.8536 28.7016C22.9985 28.6358 23.1113 28.5151 23.1672 28.3662C23.223 28.2173 23.2175 28.0522 23.1517 27.9074C23.1192 27.8356 23.0728 27.771 23.0152 27.7172C22.9577 27.6634 22.8901 27.6214 22.8164 27.5937C22.7426 27.5661 22.6641 27.5532 22.5854 27.5558C22.5066 27.5585 22.4292 27.5767 22.3575 27.6093ZM27.0887 24.4852C26.9644 24.3859 26.8057 24.34 26.6476 24.3577C26.4895 24.3754 26.3449 24.4551 26.2456 24.5794C25.7849 25.1556 25.2655 25.6824 24.6958 26.1511C24.2602 26.5094 24.5178 27.2143 25.0773 27.2143C25.2162 27.2144 25.3508 27.1661 25.458 27.0777C26.092 26.556 26.6701 25.9697 27.1829 25.3284C27.2822 25.2041 27.328 25.0454 27.3104 24.8873C27.2927 24.7292 27.213 24.5845 27.0887 24.4852ZM28.8896 20.4728C28.8138 20.4512 28.7346 20.4449 28.6563 20.454C28.578 20.4631 28.5023 20.4875 28.4335 20.5259C28.3647 20.5643 28.3042 20.6159 28.2553 20.6777C28.2064 20.7395 28.1702 20.8103 28.1487 20.8861C28.0195 21.3412 27.8596 21.787 27.6702 22.2205C27.4966 22.6177 27.7894 23.0608 28.2195 23.0608C28.3362 23.0609 28.4504 23.0269 28.5481 22.963C28.6458 22.8991 28.7227 22.8081 28.7694 22.7011C28.9805 22.2179 29.1587 21.7209 29.3029 21.2137C29.3244 21.1379 29.3308 21.0586 29.3216 20.9804C29.3125 20.9021 29.2881 20.8265 29.2497 20.7577C29.2113 20.6889 29.1598 20.6283 29.098 20.5794C29.0362 20.5305 28.9654 20.4943 28.8896 20.4728ZM23.6259 20.9018V15.0981C23.6259 14.9928 23.5982 14.8894 23.5455 14.7982C23.4929 14.707 23.4172 14.6313 23.326 14.5787L18.2998 11.6768C18.2087 11.6241 18.1052 11.5964 17.9999 11.5964C17.8946 11.5964 17.7912 11.6241 17.7 11.6768L12.6738 14.5787C12.5826 14.6313 12.5069 14.707 12.4542 14.7982C12.4016 14.8894 12.3738 14.9928 12.3738 15.0981V20.9018C12.3738 21.0071 12.4016 21.1106 12.4542 21.2018C12.5069 21.2929 12.5826 21.3687 12.6738 21.4213L17.7 24.3232C17.7912 24.3758 17.8946 24.4036 17.9999 24.4036C18.1052 24.4036 18.2087 24.3758 18.2998 24.3232L23.326 21.4213C23.4172 21.3687 23.4929 21.293 23.5455 21.2018C23.5982 21.1106 23.6259 21.0071 23.6259 20.9018ZM17.9999 12.8889L21.8264 15.0981L17.9999 17.3073L14.1734 15.0981L17.9999 12.8889ZM13.5736 16.137L17.4 18.3462V22.7646L13.5736 20.5554V16.137ZM18.5998 22.7647V18.3463L22.4262 16.1371V20.5555L18.5998 22.7647Z" fill="url(#paint2_linear_34_6289)"/>
</g>
<defs>
<linearGradient id="paint0_linear_34_6289" x1="14.3891" y1="8.05967" x2="27.1856" y2="9.63607" gradientUnits="userSpaceOnUse">
<stop stop-color="white"/>
<stop offset="1" stop-color="#999999"/>
</linearGradient>
<linearGradient id="paint1_linear_34_6289" x1="15.0192" y1="9.78105" x2="25.6039" y2="11.0855" gradientUnits="userSpaceOnUse">
<stop stop-color="white"/>
<stop offset="1" stop-color="#999999"/>
</linearGradient>
<linearGradient id="paint2_linear_34_6289" x1="15.7277" y1="11.77" x2="23.7786" y2="12.7657" gradientUnits="userSpaceOnUse">
<stop stop-color="white"/>
<stop offset="1" stop-color="#999999"/>
</linearGradient>
<clipPath id="clip0_34_6289">
<rect width="36" height="36" fill="white"/>
</clipPath>
</defs>
</svg>
