<svg width="36" height="36" viewBox="0 0 36 36" fill="none" xmlns="http://www.w3.org/2000/svg">
<g clip-path="url(#clip0_34_6766)">
<path d="M24.4135 21.1788L19.3941 17.4143V9.74586C19.3941 8.97481 18.7708 8.35156 17.9998 8.35156C17.2287 8.35156 16.6055 8.97481 16.6055 9.74586V18.1115C16.6055 18.5507 16.8118 18.9648 17.1632 19.2269L22.7402 23.4098C22.9809 23.591 23.2741 23.6889 23.5754 23.6886C24.0007 23.6886 24.4189 23.4976 24.6922 23.1295C25.1553 22.5145 25.0297 21.6403 24.4135 21.1788Z" fill="url(#paint0_linear_34_6766)"/>
<path d="M18 0C8.07419 0 0 8.07419 0 18C0 27.9258 8.07419 36 18 36C27.9258 36 36 27.9258 36 18C36 8.07419 27.9258 0 18 0ZM18 33.2115C9.61348 33.2115 2.78852 26.3865 2.78852 18C2.78852 9.61348 9.61348 2.78852 18 2.78852C26.3879 2.78852 33.2115 9.61348 33.2115 18C33.2115 26.3865 26.3865 33.2115 18 33.2115Z" fill="url(#paint1_linear_34_6766)"/>
</g>
<defs>
<linearGradient id="paint0_linear_34_6766" x1="19.9494" y1="11.7852" x2="22.9548" y2="11.9872" gradientUnits="userSpaceOnUse">
<stop stop-color="white"/>
<stop offset="1" stop-color="#999999"/>
</linearGradient>
<linearGradient id="paint1_linear_34_6766" x1="14.3891" y1="8.05969" x2="27.1856" y2="9.63608" gradientUnits="userSpaceOnUse">
<stop stop-color="white"/>
<stop offset="1" stop-color="#999999"/>
</linearGradient>
<clipPath id="clip0_34_6766">
<rect width="36" height="36" fill="white"/>
</clipPath>
</defs>
</svg>
