<svg width="80" height="80" viewBox="0 0 80 80" fill="none" xmlns="http://www.w3.org/2000/svg">
<g filter="url(#filter0_i_29_6128)">
<rect width="80" height="80" rx="40" fill="#06050F"/>
<rect x="0.5" y="0.5" width="79" height="79" rx="39.5" stroke="white" stroke-opacity="0.2"/>
<g clip-path="url(#clip0_29_6128)">
<path d="M26.5 37.6245C26.5 32.8281 26.5 30.4299 27.0663 29.6231C27.6325 28.8163 29.8875 28.0445 34.3974 26.5007L35.2566 26.2066C37.6075 25.4019 38.7829 24.9995 40 24.9995C41.2171 24.9995 42.3925 25.4019 44.7434 26.2066L45.6026 26.5007C50.1125 28.0445 52.3675 28.8163 52.9337 29.6231C53.5 30.4299 53.5 32.8281 53.5 37.6245C53.5 38.349 53.5 39.1346 53.5 39.9865C53.5 48.4437 47.1416 52.5477 43.1522 54.2904C42.07 54.7632 41.5289 54.9995 40 54.9995C38.4711 54.9995 37.93 54.7631 36.8478 54.2904C32.8584 52.5477 26.5 48.4437 26.5 39.9865C26.5 39.1346 26.5 38.349 26.5 37.6245Z" stroke="url(#paint0_linear_29_6128)" stroke-width="1.5"/>
<path d="M47.5 39.9995C47.5 40.9844 47.306 41.9597 46.9291 42.8696C46.5522 43.7796 45.9997 44.6064 45.3033 45.3028C44.6069 45.9993 43.7801 46.5517 42.8701 46.9286C41.9602 47.3055 40.9849 47.4995 40 47.4995C39.0151 47.4995 38.0398 47.3055 37.1299 46.9286C36.2199 46.5517 35.3931 45.9993 34.6967 45.3028C34.0003 44.6064 33.4478 43.7796 33.0709 42.8696C32.694 41.9597 32.5 40.9844 32.5 39.9995C32.5 39.0146 32.694 38.0393 33.0709 37.1294C33.4478 36.2194 34.0003 35.3926 34.6967 34.6962C35.3931 33.9998 36.2199 33.4473 37.1299 33.0704C38.0398 32.6935 39.0151 32.4995 40 32.4995C40.9849 32.4995 41.9602 32.6935 42.8701 33.0704C43.7801 33.4473 44.6069 33.9998 45.3033 34.6962C45.9997 35.3927 46.5522 36.2194 46.9291 37.1294C47.306 38.0393 47.5 39.0146 47.5 39.9995Z" stroke="url(#paint1_linear_29_6128)" stroke-width="1.5"/>
<path d="M42.7716 42.8696C42.9224 41.9597 43 40.9844 43 39.9995C43 39.0146 42.9224 38.0393 42.7716 37.1294C42.6209 36.2194 42.3999 35.3927 42.1213 34.6962C41.8427 33.9998 41.512 33.4473 41.1481 33.0704C40.7841 32.6935 40.394 32.4995 40 32.4995C39.606 32.4995 39.2159 32.6935 38.8519 33.0704C38.488 33.4473 38.1573 33.9998 37.8787 34.6962C37.6001 35.3926 37.3791 36.2194 37.2284 37.1294C37.0776 38.0393 37 39.0146 37 39.9995C37 40.9844 37.0776 41.9597 37.2284 42.8696C37.3791 43.7796 37.6001 44.6064 37.8787 45.3028C38.1573 45.9993 38.488 46.5517 38.8519 46.9286C39.2159 47.3055 39.606 47.4995 40 47.4995C40.394 47.4995 40.7841 47.3055 41.148 46.9286C41.512 46.5517 41.8427 45.9993 42.1213 45.3028C42.3999 44.6064 42.6209 43.7796 42.7716 42.8696Z" stroke="url(#paint2_linear_29_6128)" stroke-width="1.5"/>
<path d="M32.5 39.9995H47.5" stroke="url(#paint3_linear_29_6128)" stroke-width="1.5" stroke-linecap="round"/>
</g>
</g>
<defs>
<filter id="filter0_i_29_6128" x="0" y="0" width="80" height="82" filterUnits="userSpaceOnUse" color-interpolation-filters="sRGB">
<feFlood flood-opacity="0" result="BackgroundImageFix"/>
<feBlend mode="normal" in="SourceGraphic" in2="BackgroundImageFix" result="shape"/>
<feColorMatrix in="SourceAlpha" type="matrix" values="0 0 0 0 0 0 0 0 0 0 0 0 0 0 0 0 0 0 127 0" result="hardAlpha"/>
<feMorphology radius="1" operator="erode" in="SourceAlpha" result="effect1_innerShadow_29_6128"/>
<feOffset dy="2"/>
<feGaussianBlur stdDeviation="6"/>
<feComposite in2="hardAlpha" operator="arithmetic" k2="-1" k3="1"/>
<feColorMatrix type="matrix" values="0 0 0 0 1 0 0 0 0 1 0 0 0 0 1 0 0 0 0.26 0"/>
<feBlend mode="normal" in2="shape" result="effect1_innerShadow_29_6128"/>
</filter>
<linearGradient id="paint0_linear_29_6128" x1="37.2918" y1="31.7159" x2="46.9165" y2="32.7831" gradientUnits="userSpaceOnUse">
<stop stop-color="white"/>
<stop offset="1" stop-color="#999999"/>
</linearGradient>
<linearGradient id="paint1_linear_29_6128" x1="38.4954" y1="35.8577" x2="43.8273" y2="36.5146" gradientUnits="userSpaceOnUse">
<stop stop-color="white"/>
<stop offset="1" stop-color="#999999"/>
</linearGradient>
<linearGradient id="paint2_linear_29_6128" x1="39.3982" y1="35.8577" x2="41.5581" y2="35.9642" gradientUnits="userSpaceOnUse">
<stop stop-color="white"/>
<stop offset="1" stop-color="#999999"/>
</linearGradient>
<linearGradient id="paint3_linear_29_6128" x1="38.4954" y1="40.2234" x2="39.7215" y2="42.4891" gradientUnits="userSpaceOnUse">
<stop stop-color="white"/>
<stop offset="1" stop-color="#999999"/>
</linearGradient>
<clipPath id="clip0_29_6128">
<rect width="36" height="36" fill="white" transform="translate(22 22)"/>
</clipPath>
</defs>
</svg>
