<svg width="36" height="36" viewBox="0 0 36 36" fill="none" xmlns="http://www.w3.org/2000/svg">
<g clip-path="url(#clip0_1_4440)">
<path d="M20.5312 14.7656H15.4688C15.0804 14.7656 14.7656 15.0805 14.7656 15.4688V20.5312C14.7656 20.9195 15.0804 21.2344 15.4688 21.2344H20.5312C20.9196 21.2344 21.2344 20.9195 21.2344 20.5312V15.4688C21.2344 15.0805 20.9196 14.7656 20.5312 14.7656ZM19.8281 19.8281H16.1719V16.1719H19.8281V19.8281ZM33.6094 3.79688C32.2912 3.79688 31.2188 4.86928 31.2188 6.1875C31.2188 7.50572 32.2912 8.57812 33.6094 8.57812C34.9276 8.57812 36 7.50572 36 6.1875C36 4.86928 34.9276 3.79688 33.6094 3.79688ZM33.6094 7.17188C33.0666 7.17188 32.625 6.73031 32.625 6.1875C32.625 5.64469 33.0666 5.20312 33.6094 5.20312C34.1522 5.20312 34.5938 5.64469 34.5938 6.1875C34.5938 6.73031 34.1522 7.17188 33.6094 7.17188ZM29.9946 5.68828C29.8624 5.55693 29.6838 5.48292 29.4975 5.48227C29.3119 5.48227 29.1305 5.5575 28.9997 5.68828C28.8685 5.82051 28.7947 5.99913 28.7944 6.18539C28.7944 6.37031 28.8689 6.55172 28.9997 6.6825C29.1321 6.81387 29.3109 6.88787 29.4975 6.88852C29.6824 6.88852 29.8638 6.81328 29.9946 6.6825C30.1254 6.55172 30.2006 6.37031 30.2006 6.18539C30.2006 6.00047 30.1254 5.81906 29.9946 5.68828Z" fill="url(#paint0_linear_1_4440)"/>
<path d="M29.2172 18.7031C29.5182 19.6793 30.4287 20.3906 31.5022 20.3906C32.8204 20.3906 33.8928 19.3182 33.8928 18C33.8928 16.6818 32.8203 15.6094 31.5022 15.6094C30.4286 15.6094 29.5182 16.3207 29.2172 17.2969H24.8906V11.8125C24.8906 11.4242 24.5758 11.1094 24.1875 11.1094H23.0625V6.88852H27.0016C27.3899 6.88852 27.7047 6.57366 27.7047 6.18539C27.7047 5.79712 27.3899 5.48227 27.0016 5.48227H22.3594C21.971 5.48227 21.6563 5.79712 21.6563 6.18539V11.1094H18.7031V6.78284C19.6792 6.48183 20.3906 5.57149 20.3906 4.49789C20.3906 3.17967 19.3182 2.10727 18 2.10727C16.6818 2.10727 15.6094 3.17967 15.6094 4.49789C15.6094 5.57149 16.3208 6.4819 17.2969 6.78284V11.1094H11.8125C11.4242 11.1094 11.1094 11.4242 11.1094 11.8125V12.9375H6.88845V4.6762C7.86565 4.3759 8.57813 3.465 8.57813 2.39062C8.57813 1.07241 7.50572 0 6.1875 0C4.86928 0 3.79688 1.07241 3.79688 2.39062C3.79688 3.46345 4.50724 4.3733 5.4822 4.67494V13.6406C5.4822 14.0289 5.79699 14.3438 6.18532 14.3438H11.1094V17.2969H6.78277C6.48176 16.3207 5.57135 15.6094 4.49782 15.6094C3.1796 15.6094 2.1072 16.6818 2.1072 18C2.1072 19.3182 3.1796 20.3906 4.49782 20.3906C5.57142 20.3906 6.48183 19.6793 6.78277 18.7031H11.1094V24.1875C11.1094 24.5758 11.4242 24.8906 11.8125 24.8906H12.9375V29.1115H8.99845C8.61012 29.1115 8.29533 29.4263 8.29533 29.8146C8.29533 30.2029 8.61012 30.5177 8.99845 30.5177H13.6406C14.029 30.5177 14.3438 30.2029 14.3438 29.8146V24.8906H17.2969V29.2172C16.3208 29.5182 15.6094 30.4285 15.6094 31.5021C15.6094 32.8203 16.6818 33.8927 18 33.8927C19.3182 33.8927 20.3906 32.8203 20.3906 31.5021C20.3906 30.4285 19.6792 29.5181 18.7031 29.2172V24.8906H24.1875C24.5758 24.8906 24.8906 24.5758 24.8906 24.1875V23.0625H29.1116V31.3238C28.1344 31.6241 27.4219 32.535 27.4219 33.6094C27.4219 34.9276 28.4943 36 29.8125 36C31.1307 36 32.2031 34.9276 32.2031 33.6094C32.2031 32.5365 31.4928 31.6267 30.5178 31.3251V22.3594C30.5178 21.9711 30.203 21.6562 29.8147 21.6562H24.8906V18.7031H29.2172ZM31.5022 17.0156C32.045 17.0156 32.4866 17.4572 32.4866 18C32.4866 18.5428 32.0449 18.9844 31.5022 18.9844C30.9594 18.9844 30.5178 18.5428 30.5178 18C30.5178 17.4572 30.9594 17.0156 31.5022 17.0156ZM6.1875 3.375C5.64469 3.375 5.20313 2.93344 5.20313 2.39062C5.20313 1.84781 5.64469 1.40625 6.1875 1.40625C6.73031 1.40625 7.17188 1.84781 7.17188 2.39062C7.17188 2.93344 6.73031 3.375 6.1875 3.375ZM4.49782 18.9844C3.95501 18.9844 3.51345 18.5428 3.51345 18C3.51345 17.4572 3.95501 17.0156 4.49782 17.0156C5.04063 17.0156 5.4822 17.4572 5.4822 18C5.4822 18.5428 5.04063 18.9844 4.49782 18.9844ZM17.0156 4.49789C17.0156 3.95508 17.4572 3.51352 18 3.51352C18.5428 3.51352 18.9844 3.95508 18.9844 4.49789C18.9844 5.0407 18.5428 5.48227 18 5.48227C17.4572 5.48227 17.0156 5.0407 17.0156 4.49789ZM18.9844 31.5021C18.9844 32.0449 18.5428 32.4865 18 32.4865C17.4572 32.4865 17.0156 32.0449 17.0156 31.5021C17.0156 30.9593 17.4572 30.5177 18 30.5177C18.5428 30.5177 18.9844 30.9593 18.9844 31.5021ZM23.4844 23.4844H12.5156V12.5156H23.4844V23.4844ZM29.8125 32.625C30.3553 32.625 30.7969 33.0666 30.7969 33.6094C30.7969 34.1522 30.3553 34.5938 29.8125 34.5938C29.2697 34.5938 28.8281 34.1522 28.8281 33.6094C28.8281 33.0666 29.2697 32.625 29.8125 32.625ZM2.39063 27.4219C1.07241 27.4219 0 28.4943 0 29.8125C0 31.1307 1.07241 32.2031 2.39063 32.2031C3.70884 32.2031 4.78125 31.1307 4.78125 29.8125C4.78125 28.4943 3.70884 27.4219 2.39063 27.4219ZM2.39063 30.7969C1.84781 30.7969 1.40625 30.3553 1.40625 29.8125C1.40625 29.2697 1.84781 28.8281 2.39063 28.8281C2.93344 28.8281 3.375 29.2697 3.375 29.8125C3.375 30.3553 2.93344 30.7969 2.39063 30.7969ZM7.00102 29.3175C6.87023 29.1867 6.68883 29.1115 6.50391 29.1115C6.31898 29.1115 6.13758 29.1866 6.0068 29.3175C5.87539 29.4496 5.80137 29.6283 5.80078 29.8146C5.80078 29.9995 5.87602 30.1809 6.0068 30.3116C6.13758 30.4424 6.31898 30.5177 6.50391 30.5177C6.68883 30.5177 6.87023 30.4425 7.00102 30.3116C7.1324 30.1795 7.20642 30.0009 7.20703 29.8146C7.20703 29.6296 7.1318 29.4482 7.00102 29.3175Z" fill="url(#paint1_linear_1_4440)"/>
</g>
<defs>
<linearGradient id="paint0_linear_1_4440" x1="23.2529" y1="7.70079" x2="30.7468" y2="8.82496" gradientUnits="userSpaceOnUse">
<stop stop-color="white"/>
<stop offset="1" stop-color="#999999"/>
</linearGradient>
<linearGradient id="paint1_linear_1_4440" x1="13.5468" y1="8.05969" x2="25.6149" y2="9.45932" gradientUnits="userSpaceOnUse">
<stop stop-color="white"/>
<stop offset="1" stop-color="#999999"/>
</linearGradient>
<clipPath id="clip0_1_4440">
<rect width="36" height="36" fill="white"/>
</clipPath>
</defs>
</svg>
