<svg width="36" height="36" viewBox="0 0 36 36" fill="none" xmlns="http://www.w3.org/2000/svg">
<g clip-path="url(#clip0_1_4403)">
<path d="M30.725 5.27499C23.6924 -1.75783 12.3087 -1.75873 5.27492 5.27499C-1.75782 12.3076 -1.75879 23.6914 5.27492 30.725C12.3077 37.7578 23.6913 37.7588 30.725 30.725C37.7579 23.6923 37.7587 12.3086 30.725 5.27499ZM18 34.7962C8.73854 34.7962 1.20379 27.2615 1.20379 18C1.20379 8.73853 8.73854 1.20378 18 1.20378C27.2615 1.20378 34.7962 8.73853 34.7962 18C34.7962 27.2615 27.2615 34.7962 18 34.7962Z" fill="url(#paint0_linear_1_4403)"/>
<path d="M17.9999 3.11705C9.79344 3.11705 3.11694 9.79347 3.11694 18C3.11694 26.2065 9.79344 32.8829 17.9999 32.8829C23.0172 32.8829 27.6645 30.3794 30.4311 26.1862C30.5159 26.0534 30.5451 25.8926 30.5123 25.7385C30.4795 25.5843 30.3874 25.4493 30.2559 25.3625C30.1244 25.2757 29.964 25.2442 29.8094 25.2747C29.6548 25.3052 29.5184 25.3952 29.4297 25.5255C26.8857 29.3812 22.6129 31.6831 17.9999 31.6831C10.4549 31.6831 4.31667 25.5449 4.31667 17.9999C4.31667 10.455 10.4549 4.31678 17.9999 4.31678C27.2843 4.31678 33.9078 13.43 31.0026 22.2737C30.9781 22.3485 30.9685 22.4275 30.9744 22.506C30.9803 22.5846 31.0016 22.6612 31.0372 22.7315C31.0727 22.8018 31.1218 22.8645 31.1815 22.9158C31.2412 22.9672 31.3105 23.0063 31.3854 23.0308C31.4602 23.0554 31.5392 23.065 31.6177 23.0591C31.6963 23.0532 31.7729 23.0318 31.8432 22.9963C31.9135 22.9608 31.9761 22.9117 32.0275 22.852C32.0789 22.7922 32.1179 22.723 32.1425 22.6481C35.307 13.0129 28.0842 3.11705 17.9999 3.11705Z" fill="url(#paint1_linear_1_4403)"/>
<path d="M13.3946 8.44453C13.6808 8.44453 13.7995 8.24342 14.9698 7.8931C15.2871 7.79802 15.4674 7.46375 15.3724 7.14642C15.2774 6.82909 14.9434 6.64905 14.6257 6.74376C14.1206 6.89513 13.6263 7.08043 13.1462 7.29841C13.0013 7.36421 12.8886 7.48485 12.8327 7.63379C12.7768 7.78274 12.7823 7.94778 12.8481 8.09263C12.8958 8.1976 12.9726 8.28662 13.0695 8.34903C13.1665 8.41144 13.2793 8.4446 13.3946 8.44453ZM11.3862 9.0045C11.2852 8.88169 11.1394 8.80404 10.9811 8.78861C10.8228 8.77319 10.6648 8.82125 10.5419 8.92224C9.90785 9.44394 9.32979 10.0302 8.8171 10.6716C8.50007 11.0685 8.79063 11.6459 9.28537 11.6459C9.37547 11.6461 9.46443 11.6259 9.54564 11.5868C9.62685 11.5478 9.6982 11.491 9.75439 11.4205C10.215 10.8443 10.7343 10.3175 11.304 9.84881C11.4269 9.74775 11.5045 9.60203 11.52 9.44369C11.5354 9.28535 11.4873 9.12737 11.3862 9.0045ZM8.02018 12.9895C7.948 12.9579 7.87031 12.9409 7.79155 12.9393C7.71279 12.9378 7.63449 12.9518 7.56114 12.9805C7.48778 13.0092 7.42081 13.0521 7.36404 13.1068C7.30728 13.1614 7.26183 13.2267 7.2303 13.2989C7.01922 13.7821 6.84103 14.279 6.69695 14.7862C6.5883 15.169 6.87623 15.5501 7.27432 15.5501C7.4048 15.55 7.5317 15.5073 7.63577 15.4286C7.73985 15.3499 7.81544 15.2394 7.85109 15.1139C7.98034 14.6588 8.14019 14.213 8.32956 13.7794C8.36112 13.7072 8.37815 13.6296 8.37968 13.5508C8.38121 13.472 8.36721 13.3937 8.33848 13.3204C8.30975 13.247 8.26685 13.18 8.21224 13.1233C8.15763 13.0665 8.09236 13.021 8.02018 12.9895ZM22.3575 8.39061C22.657 8.52693 23.0138 8.39609 23.1517 8.09256C23.1843 8.02084 23.2024 7.9434 23.2051 7.86467C23.2077 7.78594 23.1949 7.70746 23.1672 7.63371C23.1395 7.55995 23.0976 7.49238 23.0438 7.43483C22.99 7.37729 22.9254 7.33091 22.8536 7.29833C22.3735 7.08032 21.8792 6.89501 21.3741 6.74368C21.2218 6.69865 21.058 6.7158 20.9183 6.79138C20.7787 6.86696 20.6748 6.99481 20.6292 7.1469C20.5837 7.29899 20.6003 7.46292 20.6755 7.60278C20.7506 7.74264 20.8781 7.84701 21.0301 7.89303C21.4832 8.02884 21.9267 8.19508 22.3575 8.39061ZM27.1829 10.6716C26.6701 10.0302 26.092 9.44396 25.458 8.92224C25.3351 8.82118 25.1771 8.77307 25.0187 8.78849C24.8604 8.80392 24.7146 8.88162 24.6136 9.0045C24.5125 9.12738 24.4644 9.28538 24.4798 9.44373C24.4952 9.60208 24.5729 9.74782 24.6958 9.84889C25.2655 10.3176 25.7849 10.8444 26.2456 11.4206C26.346 11.5414 26.4899 11.618 26.6462 11.6339C26.8024 11.6498 26.9587 11.6037 27.0815 11.5057C27.2042 11.4076 27.2836 11.2653 27.3025 11.1093C27.3215 10.9534 27.2785 10.7962 27.1829 10.6716ZM29.3029 14.7862C29.1588 14.279 28.9806 13.782 28.7695 13.2988C28.7058 13.153 28.5867 13.0385 28.4386 12.9805C28.2905 12.9225 28.1253 12.9257 27.9796 12.9895C27.8338 13.0532 27.7193 13.1722 27.6613 13.3204C27.6033 13.4685 27.6065 13.6337 27.6703 13.7794C27.8597 14.2129 28.0196 14.6587 28.1488 15.1138C28.1923 15.2669 28.2947 15.3964 28.4337 15.4739C28.5726 15.5514 28.7366 15.5706 28.8897 15.5271C29.0427 15.4836 29.1722 15.3812 29.2497 15.2422C29.3272 15.1033 29.3464 14.9393 29.3029 14.7862ZM13.6423 27.6093C13.3408 27.4721 12.9851 27.6057 12.8481 27.9074C12.7823 28.0522 12.7768 28.2173 12.8327 28.3662C12.8886 28.5152 13.0013 28.6358 13.1462 28.7016C13.6263 28.9196 14.1206 29.1049 14.6257 29.2562C14.7013 29.2791 14.7806 29.2869 14.8592 29.279C14.9377 29.2712 15.0139 29.2479 15.0835 29.2106C15.153 29.1732 15.2145 29.1225 15.2644 29.0613C15.3143 29.0002 15.3516 28.9298 15.3743 28.8541C15.3969 28.7785 15.4044 28.6992 15.3963 28.6206C15.3882 28.5421 15.3647 28.466 15.3271 28.3966C15.2896 28.3271 15.2386 28.2658 15.1773 28.2161C15.116 28.1664 15.0455 28.1293 14.9698 28.1069C14.5166 27.9711 14.0731 27.8049 13.6423 27.6093ZM11.304 26.1511C10.7343 25.6824 10.215 25.1557 9.75439 24.5794C9.70521 24.5179 9.6444 24.4666 9.57541 24.4286C9.50643 24.3905 9.43063 24.3664 9.35234 24.3577C9.27405 24.3489 9.1948 24.3557 9.11912 24.3776C9.04345 24.3995 8.97282 24.436 8.91128 24.4852C8.84973 24.5344 8.79848 24.5952 8.76044 24.6642C8.7224 24.7332 8.69832 24.809 8.68957 24.8873C8.68083 24.9656 8.68759 25.0448 8.70947 25.1205C8.73135 25.1962 8.76792 25.2668 8.8171 25.3283C9.32979 25.9697 9.90785 26.556 10.5419 27.0777C10.665 27.1772 10.8223 27.224 10.9797 27.208C11.1372 27.192 11.2819 27.1145 11.3824 26.9922C11.4829 26.87 11.531 26.7131 11.5164 26.5555C11.5017 26.398 11.4253 26.2526 11.304 26.1511ZM7.85102 20.8861C7.80758 20.7331 7.70513 20.6035 7.5662 20.526C7.42726 20.4485 7.26323 20.4294 7.11018 20.4728C6.95713 20.5162 6.8276 20.6187 6.75009 20.7577C6.67259 20.8966 6.65344 21.0606 6.69688 21.2137C6.84096 21.7209 7.01915 22.2179 7.23023 22.7011C7.27695 22.808 7.35386 22.8991 7.45154 22.963C7.54923 23.0269 7.66343 23.0609 7.78016 23.0608C8.21018 23.0608 8.50314 22.6177 8.32948 22.2206C8.14015 21.787 7.98029 21.3412 7.85102 20.8861ZM22.3575 27.6093C21.9267 27.8049 21.4832 27.9711 21.0301 28.1069C20.8781 28.1529 20.7506 28.2573 20.6755 28.3971C20.6003 28.537 20.5837 28.7009 20.6292 28.853C20.6748 29.0051 20.7787 29.133 20.9183 29.2085C21.058 29.2841 21.2218 29.3013 21.3741 29.2562C21.8792 29.1049 22.3735 28.9196 22.8536 28.7016C22.9985 28.6358 23.1113 28.5152 23.1672 28.3662C23.223 28.2173 23.2175 28.0522 23.1517 27.9074C23.1192 27.8356 23.0728 27.771 23.0152 27.7172C22.9577 27.6634 22.8901 27.6214 22.8164 27.5937C22.7426 27.5661 22.6641 27.5532 22.5854 27.5559C22.5066 27.5585 22.4292 27.5767 22.3575 27.6093ZM27.0887 24.4852C26.9644 24.3859 26.8057 24.3401 26.6476 24.3577C26.4895 24.3754 26.3449 24.4551 26.2456 24.5794C25.7849 25.1556 25.2655 25.6824 24.6958 26.1511C24.2602 26.5095 24.5178 27.2143 25.0773 27.2143C25.2162 27.2144 25.3508 27.1661 25.458 27.0778C26.092 26.556 26.6701 25.9698 27.1829 25.3284C27.2822 25.2041 27.328 25.0454 27.3104 24.8873C27.2927 24.7292 27.213 24.5846 27.0887 24.4852ZM28.8896 20.4728C28.8138 20.4513 28.7346 20.4449 28.6563 20.454C28.578 20.4631 28.5023 20.4876 28.4335 20.5259C28.3647 20.5643 28.3042 20.6159 28.2553 20.6777C28.2064 20.7395 28.1702 20.8103 28.1487 20.8861C28.0195 21.3412 27.8596 21.787 27.6702 22.2205C27.4966 22.6177 27.7894 23.0608 28.2195 23.0608C28.3362 23.0609 28.4504 23.0269 28.5481 22.963C28.6458 22.8991 28.7227 22.8081 28.7694 22.7011C28.9805 22.2179 29.1587 21.721 29.3029 21.2137C29.3244 21.1379 29.3308 21.0586 29.3216 20.9804C29.3125 20.9022 29.2881 20.8265 29.2497 20.7577C29.2113 20.6889 29.1598 20.6283 29.098 20.5794C29.0362 20.5305 28.9654 20.4943 28.8896 20.4728ZM23.6259 20.9018V15.0982C23.6259 14.9929 23.5982 14.8894 23.5455 14.7982C23.4929 14.707 23.4172 14.6313 23.326 14.5787L18.2998 11.6768C18.2087 11.6241 18.1052 11.5964 17.9999 11.5964C17.8946 11.5964 17.7912 11.6241 17.7 11.6768L12.6738 14.5787C12.5826 14.6313 12.5069 14.707 12.4542 14.7982C12.4016 14.8894 12.3738 14.9929 12.3738 15.0982V20.9018C12.3738 21.0071 12.4016 21.1106 12.4542 21.2018C12.5069 21.293 12.5826 21.3687 12.6738 21.4213L17.7 24.3232C17.7912 24.3758 17.8946 24.4036 17.9999 24.4036C18.1052 24.4036 18.2087 24.3758 18.2998 24.3232L23.326 21.4213C23.4172 21.3687 23.4929 21.293 23.5455 21.2018C23.5982 21.1106 23.6259 21.0071 23.6259 20.9018ZM17.9999 12.8889L21.8264 15.0982L17.9999 17.3073L14.1734 15.0982L17.9999 12.8889ZM13.5736 16.137L17.4 18.3462V22.7647L13.5736 20.5554V16.137ZM18.5998 22.7647V18.3463L22.4262 16.1371V20.5555L18.5998 22.7647Z" fill="url(#paint2_linear_1_4403)"/>
</g>
<defs>
<linearGradient id="paint0_linear_1_4403" x1="14.3891" y1="8.05971" x2="27.1856" y2="9.63611" gradientUnits="userSpaceOnUse">
<stop stop-color="white"/>
<stop offset="1" stop-color="#999999"/>
</linearGradient>
<linearGradient id="paint1_linear_1_4403" x1="15.019" y1="9.78103" x2="25.6037" y2="11.0855" gradientUnits="userSpaceOnUse">
<stop stop-color="white"/>
<stop offset="1" stop-color="#999999"/>
</linearGradient>
<linearGradient id="paint2_linear_1_4403" x1="15.7277" y1="11.77" x2="23.7786" y2="12.7657" gradientUnits="userSpaceOnUse">
<stop stop-color="white"/>
<stop offset="1" stop-color="#999999"/>
</linearGradient>
<clipPath id="clip0_1_4403">
<rect width="36" height="36" fill="white"/>
</clipPath>
</defs>
</svg>
