<svg width="36" height="36" viewBox="0 0 36 36" fill="none" xmlns="http://www.w3.org/2000/svg">
<path d="M26.5431 14.4504L18.4431 9.8208C18.3071 9.74297 18.1531 9.70203 17.9963 9.70203C17.8396 9.70203 17.6856 9.74297 17.5496 9.8208L9.45677 14.4504C9.31902 14.5291 9.20452 14.6428 9.12486 14.78C9.04521 14.9172 9.00322 15.073 9.00317 15.2316V23.3964C9.00319 23.555 9.04512 23.7108 9.12471 23.848C9.2043 23.9852 9.31873 24.0989 9.45641 24.1776L17.5492 28.8108C17.6853 28.8887 17.8394 28.9296 17.9962 28.9296C18.1529 28.9296 18.307 28.8887 18.4431 28.8108L26.5431 24.1776C26.6808 24.0989 26.7953 23.9852 26.875 23.848C26.9547 23.7108 26.9966 23.555 26.9967 23.3964V15.2316C26.9966 15.073 26.9547 14.9172 26.875 14.78C26.7953 14.6428 26.6808 14.5291 26.5431 14.4504ZM17.0981 26.478L10.8035 22.8744V16.7843L17.0981 20.3854V26.478ZM17.9981 18.8262L11.7154 15.2316L17.9967 11.6388L24.2834 15.2316L17.9981 18.8262ZM25.1963 22.8744L18.8981 26.4769V20.385L25.1963 16.7836V22.8744Z" fill="url(#paint0_linear_1_4457)"/>
<path d="M32.3532 23.0976V12.1212C32.3532 11.9626 32.3112 11.8067 32.2315 11.6696C32.1519 11.5324 32.0374 11.4187 31.8996 11.34L21.4089 5.34311C21.487 5.05187 21.5324 4.74767 21.5324 4.43195C21.532 2.48435 19.9476 0.899994 18 0.899994C16.0524 0.899994 14.4681 2.48435 14.4681 4.43195C14.4681 4.74767 14.5134 5.05187 14.5916 5.34311L4.10044 11.34C3.96269 11.4187 3.84819 11.5324 3.76853 11.6696C3.68887 11.8067 3.64689 11.9626 3.64684 12.1212V23.0976C2.13484 23.4972 1.01416 24.8728 1.01416 26.5093C1.01416 28.4569 2.59888 30.0409 4.54612 30.0409C5.01483 30.0411 5.47886 29.9476 5.91097 29.7661C6.34309 29.5845 6.73459 29.3185 7.06252 28.9836L17.5536 34.9812C17.6897 35.0591 17.8437 35.1 18.0004 35.1C18.1571 35.1 18.3111 35.0591 18.4472 34.9812L28.9383 28.9836C29.2662 29.3186 29.6577 29.5847 30.0898 29.7663C30.5219 29.9479 30.9859 30.0414 31.4547 30.0413C33.4023 30.0413 34.9863 28.4566 34.9863 26.5093C34.9863 24.8728 33.866 23.4968 32.3532 23.0976ZM18 2.69999C18.9551 2.69999 19.732 3.47687 19.732 4.43195C19.732 5.38703 18.9551 6.16391 18 6.16391C17.045 6.16391 16.2681 5.38703 16.2681 4.43195C16.2681 3.47687 17.045 2.69999 18 2.69999ZM4.54576 28.2413C3.59104 28.2413 2.81416 27.4644 2.81416 26.5093C2.81416 25.5542 3.59104 24.7774 4.54576 24.7774C5.50048 24.7774 6.27772 25.5542 6.27772 26.509C6.27772 27.4637 5.50084 28.2413 4.54612 28.2413H4.54576ZM27.9224 26.5093C27.9224 26.8247 27.9677 27.1289 28.0455 27.4201L18 33.1632L7.9546 27.4201C8.03533 27.1232 8.07672 26.817 8.07772 26.5093C8.07772 24.8735 6.95848 23.4979 5.44684 23.098V12.6436L15.4836 6.90659C16.1252 7.55819 17.0158 7.96391 18 7.96391C18.9843 7.96391 19.8749 7.55819 20.5164 6.90659L30.5532 12.6432V23.0976C29.0412 23.4976 27.9224 24.8735 27.9224 26.5093ZM31.454 28.2409C30.4992 28.2409 29.7224 27.4644 29.7224 26.5093C29.7224 25.5542 30.4992 24.7774 31.454 24.7774C32.4087 24.7774 33.1863 25.5542 33.1863 26.509C33.1863 27.4637 32.409 28.2413 31.4543 28.2413L31.454 28.2409Z" fill="url(#paint1_linear_1_4457)"/>
<defs>
<linearGradient id="paint0_linear_1_4457" x1="16.1951" y1="14.0067" x2="22.603" y2="14.7454" gradientUnits="userSpaceOnUse">
<stop stop-color="white"/>
<stop offset="1" stop-color="#999999"/>
</linearGradient>
<linearGradient id="paint1_linear_1_4457" x1="14.5927" y1="8.55671" x2="26.6708" y2="10.0347" gradientUnits="userSpaceOnUse">
<stop stop-color="white"/>
<stop offset="1" stop-color="#999999"/>
</linearGradient>
</defs>
</svg>
