<svg width="25" height="25" viewBox="0 0 25 25" fill="none" xmlns="http://www.w3.org/2000/svg">
<g clip-path="url(#clip0_1_3721)">
<path d="M12.2934 24.5869C19.0829 24.5869 24.5869 19.0829 24.5869 12.2934C24.5869 5.50396 19.0829 0 12.2934 0C5.50396 0 0 5.50396 0 12.2934C0 19.0829 5.50396 24.5869 12.2934 24.5869Z" fill="#F3BA2F"/>
<path d="M9.30927 11.067L12.2935 8.08276L15.2793 11.0685L17.0157 9.33208L12.2935 4.60986L7.57283 9.33054L9.30927 11.067ZM4.61011 12.2933L6.34656 10.5568L8.083 12.2933L6.34656 14.0297L4.61011 12.2933ZM9.30927 13.5195L12.2935 16.5038L15.2793 13.518L17.0157 15.2537L12.2935 19.9767L7.57283 15.256L7.57052 15.2537L9.30927 13.5195ZM16.504 12.2933L18.2405 10.5568L19.9769 12.2933L18.2405 14.0297L16.504 12.2933ZM14.0545 12.2917H14.0561V12.2933L12.2935 14.0558L10.5332 12.2963L10.5302 12.2933L10.5332 12.291L10.8413 11.9821L10.9912 11.8323L12.2935 10.5307L14.0553 12.2925L14.0545 12.2917Z" fill="white"/>
</g>
<defs>
<clipPath id="clip0_1_3721">
<rect width="24.5869" height="24.5869" fill="white"/>
</clipPath>
</defs>
</svg>
