<svg width="80" height="80" viewBox="0 0 80 80" fill="none" xmlns="http://www.w3.org/2000/svg">
<g filter="url(#filter0_i_29_6123)">
<rect width="80" height="80" rx="40" fill="#06050F"/>
<rect x="0.5" y="0.5" width="79" height="79" rx="39.5" stroke="white" stroke-opacity="0.2"/>
<path d="M48.5428 36.4503L40.4428 31.8207C40.3068 31.7428 40.1528 31.7019 39.9961 31.7019C39.8394 31.7019 39.6854 31.7428 39.5493 31.8207L31.4565 36.4503C31.3188 36.529 31.2043 36.6427 31.1246 36.7798C31.045 36.917 31.003 37.0728 31.0029 37.2315V45.3963C31.0029 45.5549 31.0449 45.7107 31.1245 45.8478C31.2041 45.985 31.3185 46.0987 31.4562 46.1775L39.549 50.8107C39.6851 50.8885 39.8391 50.9295 39.9959 50.9295C40.1527 50.9295 40.3068 50.8885 40.4428 50.8107L48.5428 46.1775C48.6806 46.0988 48.7951 45.9851 48.8748 45.8479C48.9544 45.7107 48.9964 45.5549 48.9964 45.3963V37.2315C48.9964 37.0728 48.9544 36.917 48.8748 36.7798C48.7951 36.6427 48.6806 36.529 48.5428 36.4503ZM39.0979 48.4779L32.8033 44.8743V38.7842L39.0979 42.3852V48.4779ZM39.9979 40.8261L33.7152 37.2315L39.9964 33.6387L46.2831 37.2315L39.9979 40.8261ZM47.1961 44.8743L40.8979 48.4768V42.3849L47.1961 38.7834V44.8743Z" fill="url(#paint0_linear_29_6123)"/>
<path d="M54.3528 45.0975V34.1211C54.3527 33.9625 54.3107 33.8067 54.2311 33.6695C54.1514 33.5323 54.0369 33.4186 53.8992 33.3399L43.4084 27.343C43.4865 27.0518 43.5319 26.7476 43.5319 26.4319C43.5315 24.4843 41.9472 22.8999 39.9995 22.8999C38.052 22.8999 36.4676 24.4843 36.4676 26.4319C36.4676 26.7476 36.513 27.0518 36.5911 27.343L26.1 33.3399C25.9622 33.4186 25.8477 33.5323 25.768 33.6695C25.6884 33.8067 25.6464 33.9625 25.6464 34.1211V45.0975C24.1344 45.4971 23.0137 46.8727 23.0137 48.5092C23.0137 50.4568 24.5984 52.0408 26.5456 52.0408C27.0143 52.041 27.4784 51.9476 27.9105 51.766C28.3426 51.5844 28.7341 51.3184 29.062 50.9835L39.5532 56.9811C39.6892 57.059 39.8432 57.0999 39.9999 57.0999C40.1566 57.0999 40.3106 57.059 40.4467 56.9811L50.9378 50.9835C51.2657 51.3185 51.6572 51.5846 52.0893 51.7662C52.5214 51.9478 52.9855 52.0413 53.4542 52.0412C55.4018 52.0412 56.9858 50.4565 56.9858 48.5092C56.9858 46.8727 55.8655 45.4967 54.3528 45.0975ZM39.9995 24.6999C40.9546 24.6999 41.7315 25.4768 41.7315 26.4319C41.7315 27.3869 40.9546 28.1638 39.9995 28.1638C39.0445 28.1638 38.2676 27.3869 38.2676 26.4319C38.2676 25.4768 39.0445 24.6999 39.9995 24.6999ZM26.5453 50.2412C25.5906 50.2412 24.8137 49.4643 24.8137 48.5092C24.8137 47.5541 25.5906 46.7773 26.5453 46.7773C27.5 46.7773 28.2772 47.5541 28.2772 48.5089C28.2772 49.4636 27.5004 50.2412 26.5456 50.2412H26.5453ZM49.9219 48.5092C49.9219 48.8246 49.9672 49.1288 50.045 49.42L39.9995 55.1631L29.9541 49.42C30.0348 49.1231 30.0762 48.8169 30.0772 48.5092C30.0772 46.8734 28.958 45.4978 27.4464 45.0979V34.6435L37.4832 28.9065C38.1247 29.5581 39.0153 29.9638 39.9995 29.9638C40.9838 29.9638 41.8744 29.5581 42.516 28.9065L52.5528 34.6431V45.0975C51.0408 45.4975 49.9219 46.8734 49.9219 48.5092ZM53.4535 50.2408C52.4988 50.2408 51.7219 49.4643 51.7219 48.5092C51.7219 47.5541 52.4988 46.7773 53.4535 46.7773C54.4082 46.7773 55.1858 47.5541 55.1858 48.5089C55.1858 49.4636 54.4086 50.2412 53.4538 50.2412L53.4535 50.2408Z" fill="url(#paint1_linear_29_6123)"/>
</g>
<defs>
<filter id="filter0_i_29_6123" x="0" y="0" width="80" height="82" filterUnits="userSpaceOnUse" color-interpolation-filters="sRGB">
<feFlood flood-opacity="0" result="BackgroundImageFix"/>
<feBlend mode="normal" in="SourceGraphic" in2="BackgroundImageFix" result="shape"/>
<feColorMatrix in="SourceAlpha" type="matrix" values="0 0 0 0 0 0 0 0 0 0 0 0 0 0 0 0 0 0 127 0" result="hardAlpha"/>
<feMorphology radius="1" operator="erode" in="SourceAlpha" result="effect1_innerShadow_29_6123"/>
<feOffset dy="2"/>
<feGaussianBlur stdDeviation="6"/>
<feComposite in2="hardAlpha" operator="arithmetic" k2="-1" k3="1"/>
<feColorMatrix type="matrix" values="0 0 0 0 1 0 0 0 0 1 0 0 0 0 1 0 0 0 0.26 0"/>
<feBlend mode="normal" in2="shape" result="effect1_innerShadow_29_6123"/>
</filter>
<linearGradient id="paint0_linear_29_6123" x1="38.1949" y1="36.0066" x2="44.6027" y2="36.7453" gradientUnits="userSpaceOnUse">
<stop stop-color="white"/>
<stop offset="1" stop-color="#999999"/>
</linearGradient>
<linearGradient id="paint1_linear_29_6123" x1="36.5922" y1="30.5566" x2="48.6703" y2="32.0346" gradientUnits="userSpaceOnUse">
<stop stop-color="white"/>
<stop offset="1" stop-color="#999999"/>
</linearGradient>
</defs>
</svg>
