<svg width="36" height="36" viewBox="0 0 36 36" fill="none" xmlns="http://www.w3.org/2000/svg">
<g clip-path="url(#clip0_34_6771)">
<path d="M9.68312 6.97762L10.5466 8.45981C10.6244 8.58224 10.7465 8.66987 10.8874 8.70439C11.0283 8.7389 11.1772 8.71764 11.3028 8.64503C11.4284 8.57243 11.5211 8.4541 11.5615 8.31476C11.6019 8.17543 11.5869 8.02586 11.5197 7.89731L10.375 5.92856C10.3003 5.80037 10.178 5.70688 10.0348 5.66842C9.89148 5.62997 9.73881 5.64967 9.60999 5.72324L7.64124 6.84824C7.51183 6.92284 7.41734 7.04578 7.37857 7.19004C7.33981 7.3343 7.35993 7.48805 7.43452 7.61746C7.50912 7.74688 7.63206 7.84137 7.77632 7.88013C7.92058 7.9189 8.07433 7.89877 8.20374 7.82418L9.68312 6.97762ZM12.2172 27.2389C12.2919 27.3671 12.4141 27.4605 12.5574 27.499C12.7007 27.5375 12.8534 27.5178 12.9822 27.4442L14.9509 26.3192C15.0803 26.2446 15.1748 26.1216 15.2136 25.9774C15.2524 25.8331 15.2322 25.6794 15.1576 25.55C15.0831 25.4205 14.9601 25.3261 14.8159 25.2873C14.6716 25.2485 14.5178 25.2687 14.3884 25.3432L12.9091 26.1898L12.0456 24.7076C11.9678 24.5852 11.8457 24.4976 11.7047 24.463C11.5638 24.4285 11.415 24.4498 11.2894 24.5224C11.1638 24.595 11.0711 24.7133 11.0307 24.8527C10.9903 24.992 11.0052 25.1416 11.0725 25.2701L12.2172 27.2389ZM4.64312 8.57512L2.67437 9.70012C2.61015 9.7371 2.55387 9.78641 2.50876 9.84521C2.46366 9.90401 2.43062 9.97115 2.41154 10.0428C2.39246 10.1144 2.38772 10.189 2.39759 10.2625C2.40746 10.3359 2.43175 10.4067 2.46906 10.4707L3.61374 12.4395C3.69158 12.5619 3.8137 12.6496 3.95462 12.6841C4.09554 12.7186 4.24434 12.6973 4.36995 12.6247C4.49555 12.5521 4.58825 12.4338 4.62867 12.2945C4.66909 12.1551 4.65412 12.0055 4.58687 11.877L3.71218 10.4061L5.19999 9.56231C5.26407 9.52537 5.32025 9.47618 5.36532 9.41753C5.41039 9.35889 5.44347 9.29194 5.46266 9.22051C5.48186 9.14908 5.4868 9.07457 5.4772 9.00124C5.4676 8.9279 5.44365 8.85717 5.40671 8.79309C5.36978 8.72901 5.32058 8.67283 5.26194 8.62776C5.20329 8.58269 5.13634 8.54961 5.06491 8.53042C4.99349 8.51122 4.91898 8.50628 4.84564 8.51588C4.7723 8.52548 4.70157 8.54944 4.63749 8.58637L4.64312 8.57512ZM13.3366 14.0032C12.8961 13.7049 12.391 13.5157 11.8629 13.4512C11.3348 13.3867 10.799 13.4488 10.2997 13.6324C9.8004 13.816 9.35194 14.1157 8.9914 14.5069C8.63086 14.8981 8.36858 15.3694 8.22624 15.882C8.12085 16.2656 8.09293 16.6664 8.14412 17.0609C8.19531 17.4554 8.32457 17.8358 8.52437 18.1798C8.76006 18.5857 9.08876 18.9298 9.48343 19.1839C9.60873 19.2631 9.76024 19.2896 9.90501 19.2577C10.0498 19.2259 10.1761 19.1381 10.2565 19.0136C10.337 18.8891 10.365 18.7378 10.3345 18.5927C10.304 18.4477 10.2175 18.3205 10.0937 18.2389C9.84732 18.0813 9.64196 17.8672 9.49468 17.6145C9.37008 17.3986 9.28974 17.1601 9.25835 16.9129C9.22696 16.6656 9.24516 16.4146 9.31187 16.1745C9.40679 15.8366 9.58023 15.5259 9.81805 15.2677C10.0559 15.0095 10.3513 14.8112 10.6803 14.6889C11.0094 14.5667 11.3626 14.5239 11.7113 14.564C12.06 14.6042 12.3943 14.7262 12.6869 14.9201C12.7799 14.9869 12.8665 15.0622 12.9456 15.1451C12.9968 15.1985 13.0579 15.2413 13.1256 15.271C13.1933 15.3007 13.2662 15.3168 13.3401 15.3184C13.414 15.32 13.4875 15.307 13.5564 15.2801C13.6253 15.2533 13.6882 15.2131 13.7416 15.162C13.7949 15.1108 13.8377 15.0497 13.8674 14.982C13.8972 14.9143 13.9133 14.8414 13.9148 14.7675C13.9164 14.6936 13.9034 14.6201 13.8766 14.5512C13.8497 14.4823 13.8096 14.4194 13.7584 14.3661C13.6293 14.2323 13.4881 14.1109 13.3366 14.0032ZM13.3731 5.51231C13.4642 5.51232 13.5539 5.49021 13.6346 5.44787C13.7153 5.40554 13.7844 5.34425 13.8362 5.26928C13.8879 5.1943 13.9207 5.10788 13.9316 5.01745C13.9426 4.92702 13.9314 4.83528 13.8991 4.75012L13.0891 2.62387C13.0361 2.48438 12.9299 2.37165 12.7938 2.31046C12.6577 2.24928 12.5029 2.24466 12.3634 2.29762C12.2239 2.35058 12.1112 2.45678 12.05 2.59286C11.9888 2.72894 11.9842 2.88376 12.0372 3.02324L12.8472 5.14668C12.8872 5.25389 12.959 5.34634 13.053 5.41167C13.147 5.477 13.2587 5.51211 13.3731 5.51231Z" fill="url(#paint0_linear_34_6771)"/>
<path d="M35.9124 30.4368C35.1389 29.2246 28.3327 18.5624 27.3877 17.6371L27.1908 17.443C26.2992 16.5655 25.2924 15.5699 23.9283 15.5699H23.9058C22.9411 15.5699 20.9696 15.7133 20.1061 15.778L14.2393 0.362708C14.1863 0.223889 14.0805 0.111664 13.9451 0.0505383C13.8097 -0.0105876 13.6556 -0.0156494 13.5164 0.0364581L2.61238 4.12865C2.54305 4.15459 2.47953 4.19395 2.42545 4.24449C2.37137 4.29503 2.3278 4.35574 2.29723 4.42315C2.26666 4.49057 2.24969 4.56335 2.2473 4.63733C2.24492 4.71131 2.25715 4.78503 2.28331 4.85427L2.65456 5.83021C2.70752 5.9697 2.81373 6.08243 2.94981 6.14361C3.08589 6.2048 3.2407 6.20942 3.38019 6.15646C3.51968 6.1035 3.63241 5.9973 3.69359 5.86121C3.75478 5.72513 3.7594 5.57032 3.70644 5.43083L3.53488 4.98365L13.3786 1.28521L20.1286 19.0377H20.1061C20.0965 18.9622 20.0716 18.8895 20.033 18.824L11.1371 3.51271C11.0624 3.38452 10.9401 3.29103 10.7968 3.25258C10.6535 3.21412 10.5009 3.23383 10.3721 3.3074L0.280813 9.10115C0.216592 9.13813 0.160313 9.18744 0.115208 9.24624C0.070103 9.30504 0.037062 9.37217 0.0179834 9.44378C-0.00109525 9.51539 -0.00583542 9.59007 0.00403523 9.66352C0.0139059 9.73697 0.0381928 9.80774 0.0755004 9.87177L11.5646 29.5902C11.5813 29.6161 11.6001 29.6405 11.6208 29.6633C11.6322 29.6789 11.6444 29.694 11.6574 29.7083C11.6777 29.7268 11.6993 29.7437 11.7221 29.759C11.7577 29.792 11.8013 29.8153 11.8486 29.8265C11.9114 29.8576 11.9811 29.8721 12.0511 29.8686C12.0996 29.8683 12.1478 29.8617 12.1946 29.849L12.2367 29.8321C12.2688 29.8218 12.2999 29.8086 12.3296 29.7927L14.7539 28.3865C14.6714 28.7782 14.7114 29.1858 14.8683 29.5541C15.0253 29.9224 15.2917 30.2335 15.6314 30.4452C16.0477 30.7265 19.4677 32.5349 20.4492 32.5349C21.0596 32.5349 22.2577 32.0174 22.9552 31.6911C23.5502 32.7956 24.3823 33.7548 25.3918 34.4997C26.4013 35.2447 27.5631 35.757 28.7939 35.9999H28.8755C28.9494 36.0053 29.0236 35.996 29.0939 35.9727C29.1642 35.9494 29.2292 35.9124 29.2852 35.864C29.3412 35.8155 29.3871 35.7565 29.4204 35.6903C29.4536 35.6241 29.4734 35.552 29.4788 35.4782C29.4841 35.4043 29.4749 35.3301 29.4516 35.2598C29.4282 35.1895 29.3913 35.1245 29.3429 35.0685C29.2944 35.0125 29.2354 34.9665 29.1692 34.9333C29.103 34.9001 29.0309 34.8803 28.9571 34.8749C27.8851 34.6594 26.8746 34.2078 25.9989 33.553C25.1232 32.8982 24.4044 32.0566 23.8946 31.0893C23.675 30.6453 23.4815 30.1889 23.3152 29.7224C22.9158 28.679 22.5052 27.6018 21.7964 26.9858C21.4224 26.6596 20.0471 25.5796 18.458 24.3196L16.1855 22.5196C15.4036 21.9008 13.0271 20.0136 12.5686 19.5636C12.4045 19.4232 12.2701 19.2513 12.1735 19.0581C12.0769 18.8648 12.02 18.6542 12.0061 18.4386C12.0416 18.0052 12.2432 17.6021 12.5686 17.3136C13.0439 16.8327 13.7836 16.8608 14.7624 17.3924L24.1871 22.4999C24.2683 22.5438 24.3591 22.5669 24.4514 22.5674C24.5779 22.5706 24.7017 22.5312 24.803 22.4554C24.9042 22.3796 24.977 22.2719 25.0095 22.1497C25.042 22.0274 25.0323 21.8978 24.9821 21.7817C24.9319 21.6657 24.844 21.5699 24.7327 21.5099L21.6558 19.8505C21.6499 19.8199 21.6414 19.7898 21.6305 19.7605L20.5308 16.8749C21.4842 16.8074 23.1071 16.7005 23.9199 16.6949C24.8199 16.6949 25.5849 17.4486 26.3921 18.2446L26.5918 18.4415C27.2386 19.0743 31.9355 26.3165 34.9533 31.0415C34.9916 31.1066 35.0427 31.1633 35.1034 31.2083C35.1642 31.2532 35.2334 31.2855 35.3068 31.3031C35.3803 31.3207 35.4566 31.3234 35.5311 31.3109C35.6057 31.2984 35.6769 31.271 35.7406 31.2303C35.8043 31.1897 35.8592 31.1366 35.9019 31.0743C35.9447 31.012 35.9744 30.9417 35.9894 30.8676C36.0044 30.7936 36.0043 30.7173 35.9891 30.6432C35.974 30.5692 35.944 30.499 35.9011 30.4368H35.9124ZM21.9511 29.3118C22.0636 29.593 22.1733 29.8743 22.2774 30.133C22.3505 30.3243 22.4208 30.5071 22.4939 30.6955C21.6643 31.0808 20.753 31.4352 20.4492 31.438C19.9092 31.424 16.9336 29.9783 16.2474 29.5311C16.0599 29.4205 15.9224 29.2416 15.8637 29.032C15.805 28.8223 15.8296 28.5981 15.9324 28.4061C15.9825 28.2751 16.0609 28.1568 16.162 28.0595C16.2632 27.9623 16.3845 27.8886 16.5174 27.8436C16.8943 28.1249 17.333 28.4061 17.738 28.6536C18.0671 28.859 18.3764 29.053 18.548 29.1852C18.8517 29.4243 19.4114 29.5002 19.9993 29.5002C20.6544 29.4938 21.3076 29.4289 21.9511 29.3061V29.3118ZM21.428 28.274C20.7558 28.3808 19.5127 28.468 19.2399 28.3133C19.0205 28.1418 18.7027 27.9449 18.3342 27.7115C17.9658 27.478 17.5664 27.2305 17.2318 26.983L18.8433 26.0549C19.9402 26.9211 20.8121 27.6046 21.0708 27.8436C21.2095 27.9693 21.3306 28.1131 21.4308 28.2711L21.428 28.274ZM11.7671 16.5318C11.4975 16.7787 11.2802 17.0772 11.1281 17.4095C10.9759 17.7419 10.8919 18.1014 10.8811 18.4668C10.8965 18.8299 10.9855 19.1862 11.1426 19.5139C11.2997 19.8417 11.5217 20.1342 11.7952 20.3736C12.1411 20.7111 13.283 21.6477 15.4993 23.4055L17.7746 25.2055L17.8983 25.3011L12.2536 28.544L1.33269 9.79583L10.448 4.56177L18.2977 18.0365L15.2968 16.4108C13.463 15.418 12.3746 15.9271 11.7671 16.5318Z" fill="url(#paint1_linear_34_6771)"/>
</g>
<defs>
<linearGradient id="paint0_linear_34_6771" x1="7.5248" y1="7.91559" x2="12.1402" y2="8.20463" gradientUnits="userSpaceOnUse">
<stop stop-color="white"/>
<stop offset="1" stop-color="#999999"/>
</linearGradient>
<linearGradient id="paint1_linear_34_6771" x1="14.3887" y1="8.06057" x2="27.1858" y2="9.63707" gradientUnits="userSpaceOnUse">
<stop stop-color="white"/>
<stop offset="1" stop-color="#999999"/>
</linearGradient>
<clipPath id="clip0_34_6771">
<rect width="36" height="36" fill="white"/>
</clipPath>
</defs>
</svg>
