<svg width="36" height="36" viewBox="0 0 36 36" fill="none" xmlns="http://www.w3.org/2000/svg">
<path d="M3 27C3 25.6022 3 24.9033 3.22836 24.3519C3.53284 23.6169 4.11687 23.0328 4.85195 22.7284C5.40326 22.5 6.10218 22.5 7.5 22.5H28.5C29.8979 22.5 30.5968 22.5 31.1481 22.7284C31.8832 23.0328 32.4672 23.6169 32.7717 24.3519C33 24.9033 33 25.6022 33 27C33 28.3978 33 29.0967 32.7717 29.6481C32.4672 30.3831 31.8832 30.9672 31.1481 31.2716C30.5968 31.5 29.8979 31.5 28.5 31.5H7.5C6.10218 31.5 5.40326 31.5 4.85195 31.2716C4.11687 30.9672 3.53284 30.3831 3.22836 29.6481C3 29.0967 3 28.3978 3 27Z" stroke="url(#paint0_linear_29_5986)" stroke-width="1.5"/>
<path d="M3 18C3 16.6022 3 15.9033 3.22836 15.3519C3.53284 14.6169 4.11687 14.0328 4.85195 13.7284C5.40326 13.5 6.10218 13.5 7.5 13.5H28.5C29.8979 13.5 30.5968 13.5 31.1481 13.7284C31.8832 14.0328 32.4672 14.6169 32.7717 15.3519C33 15.9033 33 16.6022 33 18C33 19.3978 33 20.0967 32.7717 20.648C32.4672 21.3831 31.8832 21.9672 31.1481 22.2716C30.5968 22.5 29.8979 22.5 28.5 22.5H7.5C6.10218 22.5 5.40326 22.5 4.85195 22.2716C4.11687 21.9672 3.53284 21.3831 3.22836 20.648C3 20.0967 3 19.3978 3 18Z" stroke="url(#paint1_linear_29_5986)" stroke-width="1.5"/>
<path d="M3 9C3 7.60218 3 6.90326 3.22836 6.35195C3.53284 5.61687 4.11687 5.03284 4.85195 4.72836C5.40326 4.5 6.10218 4.5 7.5 4.5H28.5C29.8979 4.5 30.5968 4.5 31.1481 4.72836C31.8832 5.03284 32.4672 5.61687 32.7717 6.35195C33 6.90326 33 7.60218 33 9C33 10.3978 33 11.0967 32.7717 11.6481C32.4672 12.3831 31.8832 12.9672 31.1481 13.2716C30.5968 13.5 29.8979 13.5 28.5 13.5H7.5C6.10218 13.5 5.40326 13.5 4.85195 13.2716C4.11687 12.9672 3.53284 12.3831 3.22836 11.6481C3 11.0967 3 10.3978 3 9Z" stroke="url(#paint2_linear_29_5986)" stroke-width="1.5"/>
<path d="M7.5 19.5C8.32843 19.5 9 18.8284 9 18C9 17.1716 8.32843 16.5 7.5 16.5C6.67157 16.5 6 17.1716 6 18C6 18.8284 6.67157 19.5 7.5 19.5Z" fill="url(#paint3_linear_29_5986)"/>
<path d="M7.5 10.5C8.32843 10.5 9 9.82843 9 9C9 8.17157 8.32843 7.5 7.5 7.5C6.67157 7.5 6 8.17157 6 9C6 9.82843 6.67157 10.5 7.5 10.5Z" fill="url(#paint4_linear_29_5986)"/>
<path d="M7.5 28.5C8.32843 28.5 9 27.8284 9 27C9 26.1716 8.32843 25.5 7.5 25.5C6.67157 25.5 6 26.1716 6 27C6 27.8284 6.67157 28.5 7.5 28.5Z" fill="url(#paint5_linear_29_5986)"/>
<defs>
<linearGradient id="paint0_linear_29_5986" x1="14.9909" y1="24.5149" x2="24.2544" y2="28.3189" gradientUnits="userSpaceOnUse">
<stop stop-color="white"/>
<stop offset="1" stop-color="#999999"/>
</linearGradient>
<linearGradient id="paint1_linear_29_5986" x1="14.9909" y1="15.5149" x2="24.2544" y2="19.3189" gradientUnits="userSpaceOnUse">
<stop stop-color="white"/>
<stop offset="1" stop-color="#999999"/>
</linearGradient>
<linearGradient id="paint2_linear_29_5986" x1="14.9909" y1="6.51493" x2="24.2544" y2="10.3189" gradientUnits="userSpaceOnUse">
<stop stop-color="white"/>
<stop offset="1" stop-color="#999999"/>
</linearGradient>
<linearGradient id="paint3_linear_29_5986" x1="7.19909" y1="17.1716" x2="8.26546" y2="17.303" gradientUnits="userSpaceOnUse">
<stop stop-color="white"/>
<stop offset="1" stop-color="#999999"/>
</linearGradient>
<linearGradient id="paint4_linear_29_5986" x1="7.19909" y1="8.17164" x2="8.26546" y2="8.30301" gradientUnits="userSpaceOnUse">
<stop stop-color="white"/>
<stop offset="1" stop-color="#999999"/>
</linearGradient>
<linearGradient id="paint5_linear_29_5986" x1="7.19909" y1="26.1716" x2="8.26546" y2="26.303" gradientUnits="userSpaceOnUse">
<stop stop-color="white"/>
<stop offset="1" stop-color="#999999"/>
</linearGradient>
</defs>
</svg>
