<svg width="20" height="20" viewBox="0 0 20 20" fill="none" xmlns="http://www.w3.org/2000/svg">
<g clip-path="url(#clip0_1_4832)">
<path d="M10.0028 7.06641C8.38356 7.06641 7.06836 8.38161 7.06836 10.0008C7.06836 11.62 8.38356 12.9384 10.0028 12.9384C11.622 12.9384 12.9404 11.62 12.9404 10.0008C12.9404 8.38161 11.622 7.06641 10.0028 7.06641Z" fill="#D5D7DA"/>
<path d="M14.4307 2H5.57315C3.60515 2 2.00195 3.6032 2.00195 5.5712V14.4288C2.00195 16.4 3.60515 18 5.57315 18H14.4307C16.4019 18 18.0019 16.4 18.0019 14.4288V5.5712C18.0019 3.6032 16.4019 2 14.4307 2ZM10.0019 15.184C7.14435 15.184 4.81795 12.8576 4.81795 10C4.81795 7.1424 7.14435 4.8192 10.0019 4.8192C12.8595 4.8192 15.1859 7.1424 15.1859 10C15.1859 12.8576 12.8595 15.184 10.0019 15.184ZM15.2947 5.76C14.6899 5.76 14.1971 5.2704 14.1971 4.6656C14.1971 4.0608 14.6899 3.568 15.2947 3.568C15.8995 3.568 16.3923 4.0608 16.3923 4.6656C16.3923 5.2704 15.8995 5.76 15.2947 5.76Z" fill="#D5D7DA"/>
</g>
<defs>
<clipPath id="clip0_1_4832">
<rect width="20" height="20" fill="white"/>
</clipPath>
</defs>
</svg>
