<svg width="20" height="20" viewBox="0 0 20 20" fill="none" xmlns="http://www.w3.org/2000/svg">
<g clip-path="url(#clip0_1_4841)">
<path d="M5.85979 3.93388C5.85979 5.00194 4.99575 5.86777 3.9299 5.86777C2.86404 5.86777 2 5.00194 2 3.93388C2 2.86583 2.86404 2 3.9299 2C4.99575 2 5.85979 2.86583 5.85979 3.93388Z" fill="#D5D7DA"/>
<path d="M2.26367 7.28906H5.56264V17.9998H2.26367V7.28906Z" fill="#D5D7DA"/>
<path d="M10.8741 7.28934H7.5752V18.0001H10.8741C10.8741 18.0001 10.8741 14.6282 10.8741 12.5199C10.8741 11.2545 11.2774 9.98355 12.8865 9.98355C14.705 9.98355 14.694 11.6396 14.6856 12.9225C14.6745 14.5995 14.7009 16.3108 14.7009 18.0001H17.9999V12.3472C17.972 8.73765 17.0941 7.07446 14.2061 7.07446C12.491 7.07446 11.4279 7.90872 10.8741 8.6635V7.28934Z" fill="#D5D7DA"/>
</g>
<defs>
<clipPath id="clip0_1_4841">
<rect width="20" height="20" fill="white"/>
</clipPath>
</defs>
</svg>
