<svg width="1835" height="262" viewBox="0 0 1835 262" fill="none" xmlns="http://www.w3.org/2000/svg">
<g opacity="0.3" filter="url(#filter0_i_1_4855)">
<path d="M6.634e-05 -7.43866e-05H68.2671L140.369 175.909H143.438L215.54 -7.43866e-05H283.807V261.818H230.114V91.4062H227.94L160.185 260.54H123.622L55.8665 90.767H53.6933V261.818H6.634e-05V-7.43866e-05ZM417.88 265.653C397.681 265.653 380.295 261.562 365.721 253.381C351.232 245.114 340.068 233.437 332.227 218.352C324.386 203.182 320.465 185.241 320.465 164.531C320.465 144.332 324.386 126.605 332.227 111.349C340.068 96.0937 351.104 84.2045 365.337 75.6817C379.656 67.159 396.445 62.8977 415.707 62.8977C428.661 62.8977 440.721 64.9857 451.886 69.1619C463.136 73.2528 472.937 79.4317 481.289 87.6988C489.727 95.9658 496.289 106.364 500.977 118.892C505.664 131.335 508.008 145.909 508.008 162.614V177.571H342.198V143.821H456.744C456.744 135.98 455.039 129.034 451.63 122.983C448.221 116.932 443.491 112.202 437.44 108.793C431.474 105.298 424.528 103.551 416.602 103.551C408.335 103.551 401.005 105.469 394.613 109.304C388.306 113.054 383.363 118.125 379.783 124.517C376.204 130.824 374.372 137.855 374.286 145.611V177.699C374.286 187.415 376.076 195.81 379.656 202.883C383.32 209.957 388.477 215.412 395.124 219.247C401.772 223.082 409.656 225 418.775 225C424.826 225 430.366 224.148 435.394 222.443C440.423 220.739 444.727 218.182 448.306 214.773C451.886 211.364 454.613 207.187 456.488 202.244L506.857 205.568C504.301 217.67 499.059 228.239 491.133 237.273C483.292 246.222 473.15 253.21 460.707 258.239C448.349 263.182 434.073 265.653 417.88 265.653ZM647.994 65.4545V106.364H529.741V65.4545H647.994ZM556.587 18.409H611.048V201.477C611.048 206.506 611.815 210.426 613.349 213.239C614.883 215.966 617.014 217.883 619.741 218.991C622.553 220.099 625.792 220.653 629.457 220.653C632.014 220.653 634.57 220.44 637.127 220.014C639.684 219.503 641.644 219.119 643.008 218.864L651.573 259.389C648.846 260.241 645.011 261.222 640.068 262.329C635.124 263.523 629.116 264.247 622.042 264.503C608.917 265.014 597.411 263.267 587.525 259.261C577.724 255.256 570.096 249.034 564.641 240.597C559.187 232.159 556.502 221.506 556.587 208.636V18.409ZM739.464 265.526C726.935 265.526 715.771 263.352 705.97 259.006C696.168 254.574 688.413 248.054 682.702 239.446C677.077 230.753 674.265 219.929 674.265 206.974C674.265 196.065 676.268 186.903 680.274 179.489C684.279 172.074 689.734 166.108 696.637 161.591C703.541 157.074 711.381 153.665 720.16 151.364C729.024 149.062 738.313 147.443 748.029 146.506C759.45 145.312 768.654 144.204 775.643 143.182C782.631 142.074 787.702 140.454 790.856 138.324C794.009 136.193 795.586 133.04 795.586 128.864V128.097C795.586 120 793.029 113.736 787.916 109.304C782.887 104.872 775.728 102.656 766.438 102.656C756.637 102.656 748.839 104.829 743.043 109.176C737.248 113.437 733.413 118.807 731.538 125.284L681.168 121.193C683.725 109.261 688.754 98.9488 696.254 90.2556C703.754 81.4772 713.427 74.7442 725.274 70.0567C737.205 65.284 751.012 62.8977 766.694 62.8977C777.603 62.8977 788.043 64.1761 798.015 66.7329C808.072 69.2897 816.978 73.2528 824.734 78.6221C832.575 83.9914 838.754 90.8948 843.271 99.3323C847.788 107.685 850.046 117.699 850.046 129.375V261.818H798.399V234.588H796.864C793.711 240.724 789.492 246.136 784.208 250.824C778.924 255.426 772.575 259.048 765.16 261.69C757.745 264.247 749.18 265.526 739.464 265.526ZM755.06 227.94C763.072 227.94 770.146 226.364 776.282 223.21C782.418 219.972 787.234 215.625 790.728 210.17C794.222 204.716 795.97 198.537 795.97 191.633V170.795C794.265 171.903 791.921 172.926 788.938 173.864C786.041 174.716 782.759 175.526 779.095 176.293C775.43 176.974 771.765 177.614 768.1 178.21C764.435 178.722 761.112 179.19 758.129 179.616C751.737 180.554 746.154 182.045 741.381 184.091C736.609 186.136 732.901 188.906 730.259 192.401C727.617 195.81 726.296 200.071 726.296 205.185C726.296 212.599 728.981 218.267 734.35 222.187C739.805 226.023 746.708 227.94 755.06 227.94ZM1068.33 65.4545L999.684 261.818H938.32L869.67 65.4545H927.198L967.979 205.952H970.025L1010.68 65.4545H1068.33ZM1179.36 265.653C1159.17 265.653 1141.78 261.562 1127.21 253.381C1112.72 245.114 1101.55 233.437 1093.71 218.352C1085.87 203.182 1081.95 185.241 1081.95 164.531C1081.95 144.332 1085.87 126.605 1093.71 111.349C1101.55 96.0937 1112.59 84.2045 1126.82 75.6817C1141.14 67.159 1157.93 62.8977 1177.19 62.8977C1190.15 62.8977 1202.21 64.9857 1213.37 69.1619C1224.62 73.2528 1234.42 79.4317 1242.77 87.6988C1251.21 95.9658 1257.77 106.364 1262.46 118.892C1267.15 131.335 1269.49 145.909 1269.49 162.614V177.571H1103.68V143.821H1218.23C1218.23 135.98 1216.52 129.034 1213.11 122.983C1209.71 116.932 1204.98 112.202 1198.92 108.793C1192.96 105.298 1186.01 103.551 1178.09 103.551C1169.82 103.551 1162.49 105.469 1156.1 109.304C1149.79 113.054 1144.85 118.125 1141.27 124.517C1137.69 130.824 1135.86 137.855 1135.77 145.611V177.699C1135.77 187.415 1137.56 195.81 1141.14 202.883C1144.8 209.957 1149.96 215.412 1156.61 219.247C1163.26 223.082 1171.14 225 1180.26 225C1186.31 225 1191.85 224.148 1196.88 222.443C1201.91 220.739 1206.21 218.182 1209.79 214.773C1213.37 211.364 1216.1 207.187 1217.97 202.244L1268.34 205.568C1265.78 217.67 1260.54 228.239 1252.62 237.273C1244.78 246.222 1234.63 253.21 1222.19 258.239C1209.83 263.182 1195.56 265.653 1179.36 265.653ZM1305.03 261.818V65.4545H1357.83V99.7158H1359.88C1363.46 87.5283 1369.46 78.3238 1377.9 72.1022C1386.34 65.7954 1396.05 62.642 1407.05 62.642C1409.78 62.642 1412.72 62.8124 1415.87 63.1533C1419.02 63.4943 1421.79 63.963 1424.18 64.5596V112.883C1421.62 112.116 1418.09 111.435 1413.57 110.838C1409.05 110.241 1404.92 109.943 1401.17 109.943C1393.16 109.943 1386 111.69 1379.69 115.185C1373.47 118.594 1368.53 123.366 1364.86 129.503C1361.28 135.639 1359.49 142.713 1359.49 150.724V261.818H1305.03ZM1615.72 121.449L1565.86 124.517C1565.01 120.256 1563.17 116.42 1560.36 113.011C1557.55 109.517 1553.84 106.747 1549.24 104.702C1544.72 102.571 1539.31 101.506 1533 101.506C1524.57 101.506 1517.45 103.295 1511.65 106.875C1505.86 110.369 1502.96 115.057 1502.96 120.937C1502.96 125.625 1504.84 129.588 1508.59 132.827C1512.34 136.065 1518.77 138.665 1527.89 140.625L1563.43 147.784C1582.52 151.704 1596.75 158.011 1606.13 166.704C1615.5 175.398 1620.19 186.818 1620.19 200.966C1620.19 213.835 1616.4 225.128 1608.81 234.844C1601.31 244.56 1591 252.145 1577.88 257.599C1564.84 262.969 1549.79 265.653 1532.75 265.653C1506.75 265.653 1486.04 260.241 1470.62 249.418C1455.28 238.508 1446.29 223.679 1443.64 204.929L1497.21 202.116C1498.83 210.043 1502.75 216.094 1508.97 220.27C1515.19 224.361 1523.16 226.406 1532.88 226.406C1542.42 226.406 1550.09 224.574 1555.89 220.909C1561.77 217.159 1564.75 212.344 1564.84 206.463C1564.75 201.52 1562.66 197.472 1558.57 194.318C1554.48 191.079 1548.17 188.608 1539.65 186.903L1505.65 180.128C1486.47 176.293 1472.19 169.645 1462.82 160.185C1453.53 150.724 1448.89 138.665 1448.89 124.006C1448.89 111.392 1452.29 100.525 1459.11 91.4062C1466.02 82.2869 1475.69 75.2556 1488.13 70.3124C1500.66 65.3693 1515.32 62.8977 1532.11 62.8977C1556.91 62.8977 1576.43 68.1391 1590.66 78.6221C1604.98 89.105 1613.33 103.381 1615.72 121.449ZM1743.97 265.653C1723.77 265.653 1706.39 261.562 1691.81 253.381C1677.33 245.114 1666.16 233.437 1658.32 218.352C1650.48 203.182 1646.56 185.241 1646.56 164.531C1646.56 144.332 1650.48 126.605 1658.32 111.349C1666.16 96.0937 1677.2 84.2045 1691.43 75.6817C1705.75 67.159 1722.54 62.8977 1741.8 62.8977C1754.76 62.8977 1766.81 64.9857 1777.98 69.1619C1789.23 73.2528 1799.03 79.4317 1807.38 87.6988C1815.82 95.9658 1822.38 106.364 1827.07 118.892C1831.76 131.335 1834.1 145.909 1834.1 162.614V177.571H1668.29V143.821H1782.84C1782.84 135.98 1781.13 129.034 1777.72 122.983C1774.31 116.932 1769.58 112.202 1763.53 108.793C1757.57 105.298 1750.62 103.551 1742.7 103.551C1734.43 103.551 1727.1 105.469 1720.71 109.304C1714.4 113.054 1709.46 118.125 1705.88 124.517C1702.3 130.824 1700.47 137.855 1700.38 145.611V177.699C1700.38 187.415 1702.17 195.81 1705.75 202.883C1709.41 209.957 1714.57 215.412 1721.22 219.247C1727.87 223.082 1735.75 225 1744.87 225C1750.92 225 1756.46 224.148 1761.49 222.443C1766.52 220.739 1770.82 218.182 1774.4 214.773C1777.98 211.364 1780.71 207.187 1782.58 202.244L1832.95 205.568C1830.39 217.67 1825.15 228.239 1817.23 237.273C1809.39 246.222 1799.24 253.21 1786.8 258.239C1774.44 263.182 1760.17 265.653 1743.97 265.653Z" fill="white" fill-opacity="0.1"/>
</g>
<defs>
<filter id="filter0_i_1_4855" x="0" y="0" width="1834.1" height="265.653" filterUnits="userSpaceOnUse" color-interpolation-filters="sRGB">
<feFlood flood-opacity="0" result="BackgroundImageFix"/>
<feBlend mode="normal" in="SourceGraphic" in2="BackgroundImageFix" result="shape"/>
<feColorMatrix in="SourceAlpha" type="matrix" values="0 0 0 0 0 0 0 0 0 0 0 0 0 0 0 0 0 0 127 0" result="hardAlpha"/>
<feOffset/>
<feGaussianBlur stdDeviation="3"/>
<feComposite in2="hardAlpha" operator="arithmetic" k2="-1" k3="1"/>
<feColorMatrix type="matrix" values="0 0 0 0 1 0 0 0 0 1 0 0 0 0 1 0 0 0 0.25 0"/>
<feBlend mode="normal" in2="shape" result="effect1_innerShadow_1_4855"/>
</filter>
</defs>
</svg>
