<svg width="120" height="120" viewBox="0 0 120 120" fill="none" xmlns="http://www.w3.org/2000/svg">
<rect width="120" height="120" rx="60" fill="white" fill-opacity="0.2"/>
<path d="M41.1786 85V34.0909H61.2639C65.1085 34.0909 68.3898 34.7786 71.1076 36.1541C73.842 37.513 75.9218 39.4437 77.3469 41.946C78.7887 44.4318 79.5096 47.3568 79.5096 50.7209C79.5096 54.1016 78.7804 57.0099 77.3221 59.446C75.8638 61.8655 73.7508 63.7216 70.9833 65.0142C68.2324 66.3068 64.9014 66.9531 60.9904 66.9531H47.5423V58.3026H59.2504C61.3053 58.3026 63.0122 58.0208 64.3711 57.4574C65.73 56.8939 66.7409 56.0488 67.4038 54.9219C68.0832 53.795 68.4229 52.3946 68.4229 50.7209C68.4229 49.0305 68.0832 47.6053 67.4038 46.4453C66.7409 45.2853 65.7217 44.407 64.3462 43.8104C62.9873 43.1972 61.2721 42.8906 59.2006 42.8906H51.9421V85H41.1786ZM68.6715 61.8324L81.3242 85H69.4421L57.0629 61.8324H68.6715Z" fill="white"/>
</svg>
