<svg width="25" height="25" viewBox="0 0 25 25" fill="none" xmlns="http://www.w3.org/2000/svg">
<g clip-path="url(#clip0_1_3702)">
<g clip-path="url(#clip1_1_3702)">
<path d="M12.2934 24.5869C19.0829 24.5869 24.5869 19.0829 24.5869 12.2934C24.5869 5.50396 19.0829 0 12.2934 0C5.50396 0 0 5.50396 0 12.2934C0 19.0829 5.50396 24.5869 12.2934 24.5869Z" fill="#23292F"/>
<path d="M17.7257 6.14648H19.9462L15.3246 10.7235C14.5166 11.5196 13.4278 11.9658 12.2935 11.9658C11.1592 11.9658 10.0704 11.5196 9.26241 10.7235L4.637 6.14648H6.86134L10.3727 9.62169C10.884 10.1264 11.5735 10.4094 12.292 10.4094C13.0104 10.4094 13.7 10.1264 14.2113 9.62169L17.7257 6.14648ZM6.83445 18.8725H4.61011L9.26241 14.2678C10.0704 13.4717 11.1592 13.0255 12.2935 13.0255C13.4278 13.0255 14.5166 13.4717 15.3246 14.2678L19.9769 18.8717H17.7526L14.2144 15.3666C13.703 14.8619 13.0135 14.5789 12.295 14.5789C11.5766 14.5789 10.8871 14.8619 10.3757 15.3666L6.83368 18.8725H6.83445Z" fill="white"/>
</g>
</g>
<defs>
<clipPath id="clip0_1_3702">
<rect width="24.5869" height="24.5869" fill="white"/>
</clipPath>
<clipPath id="clip1_1_3702">
<rect width="24.5869" height="24.5869" fill="white"/>
</clipPath>
</defs>
</svg>
