<svg width="25" height="25" viewBox="0 0 25 25" fill="none" xmlns="http://www.w3.org/2000/svg">
<g clip-path="url(#clip0_1_3684)">
<g clip-path="url(#clip1_1_3684)">
<path d="M12.2934 24.5869C19.0829 24.5869 24.5869 19.0829 24.5869 12.2934C24.5869 5.50396 19.0829 0 12.2934 0C5.50396 0 0 5.50396 0 12.2934C0 19.0829 5.50396 24.5869 12.2934 24.5869Z" fill="#26A17B"/>
<path fill-rule="evenodd" clip-rule="evenodd" d="M13.7702 13.3562V13.3547C13.6857 13.3608 13.2501 13.3869 12.2781 13.3869C11.5021 13.3869 10.9558 13.3639 10.7637 13.3547V13.357C7.7764 13.2256 5.54668 12.7054 5.54668 12.0831C5.54668 11.4615 7.7764 10.9413 10.7637 10.8076V12.8391C10.9589 12.853 11.5182 12.886 12.2912 12.886C13.2186 12.886 13.6834 12.8476 13.7702 12.8399V10.8092C16.7514 10.9421 18.9757 11.4623 18.9757 12.0831C18.9757 12.7054 16.7514 13.2241 13.7702 13.3562ZM13.7702 10.5979V8.77998H17.93V6.00781H6.60392V8.77998H10.7637V10.5971C7.38301 10.7523 4.84058 11.4223 4.84058 12.2245C4.84058 13.0266 7.38301 13.6958 10.7637 13.8518V19.6773H13.7702V13.8503C17.1455 13.6951 19.6818 13.0258 19.6818 12.2245C19.6818 11.4231 17.1455 10.7538 13.7702 10.5979Z" fill="white"/>
</g>
</g>
<defs>
<clipPath id="clip0_1_3684">
<rect width="24.5869" height="24.5869" fill="white"/>
</clipPath>
<clipPath id="clip1_1_3684">
<rect width="24.5869" height="24.5869" fill="white"/>
</clipPath>
</defs>
</svg>
