<svg width="25" height="25" viewBox="0 0 25 25" fill="none" xmlns="http://www.w3.org/2000/svg">
<g clip-path="url(#clip0_1_3738)">
<g clip-path="url(#clip1_1_3738)">
<path d="M12.2934 24.5869C19.0829 24.5869 24.5869 19.0829 24.5869 12.2934C24.5869 5.50396 19.0829 0 12.2934 0C5.50396 0 0 5.50396 0 12.2934C0 19.0829 5.50396 24.5869 12.2934 24.5869Z" fill="#2775C9"/>
<path d="M12.1012 21.1292C7.11471 21.1292 3.07324 17.0878 3.07324 12.1012C3.07324 7.11471 7.11471 3.07324 12.1012 3.07324C17.0878 3.07324 21.1292 7.11471 21.1292 12.1012C21.1292 14.4956 20.1781 16.7919 18.485 18.485C16.7919 20.1781 14.4956 21.1292 12.1012 21.1292ZM11.5634 8.75127C11.0694 8.77577 10.6025 8.98403 10.2542 9.33516C9.9059 9.68629 9.70145 10.1549 9.68097 10.6491C9.68097 11.5788 10.2495 12.1858 11.4558 12.4393L12.301 12.6391C13.1231 12.8312 13.4612 13.1078 13.4612 13.5764C13.4612 14.0451 12.8696 14.5061 12.1012 14.5061C11.8283 14.5312 11.5539 14.4789 11.3093 14.3552C11.0647 14.2316 10.8599 14.0416 10.7182 13.807C10.6763 13.7179 10.61 13.6426 10.5271 13.5896C10.4442 13.5365 10.348 13.508 10.2495 13.5073H9.79622C9.76136 13.5138 9.72812 13.527 9.69841 13.5464C9.6687 13.5657 9.64312 13.5908 9.62312 13.6201C9.60313 13.6493 9.58912 13.6823 9.58191 13.717C9.57469 13.7517 9.57441 13.7875 9.58108 13.8223C9.6915 14.273 9.94825 14.6743 10.3111 14.9635C10.674 15.2527 11.1225 15.4134 11.5864 15.4205V16.0659C11.5864 16.2095 11.6435 16.3473 11.7451 16.4489C11.8467 16.5505 11.9845 16.6075 12.1281 16.6075C12.2718 16.6075 12.4096 16.5505 12.5112 16.4489C12.6127 16.3473 12.6698 16.2095 12.6698 16.0659V15.4128C13.1944 15.4068 13.696 15.1963 14.0677 14.8261C14.4394 14.4558 14.6518 13.955 14.6598 13.4305C14.6598 12.4547 14.0989 11.8938 12.7697 11.6095L12.0014 11.4405C11.233 11.2484 10.8719 10.9948 10.8719 10.5646C10.8719 10.1343 11.3329 9.65792 12.1012 9.65792C12.3432 9.63264 12.5873 9.67796 12.8041 9.7884C13.0209 9.89883 13.2011 10.0697 13.3229 10.2803C13.3723 10.3854 13.4505 10.4745 13.5484 10.537C13.6463 10.5996 13.7599 10.6331 13.8761 10.6337H14.2372C14.3193 10.6136 14.3903 10.5621 14.4348 10.4903C14.4794 10.4185 14.4939 10.332 14.4754 10.2495C14.3713 9.83343 14.1385 9.46083 13.8101 9.18488C13.4817 8.90893 13.0746 8.74374 12.6468 8.71286V8.1827C12.6468 8.03904 12.5897 7.90126 12.4881 7.79968C12.3865 7.69809 12.2487 7.64102 12.1051 7.64102C11.9614 7.64102 11.8236 7.69809 11.7221 7.79968C11.6205 7.90126 11.5634 8.03904 11.5634 8.1827V8.75127ZM5.33216 12.1012C5.33304 13.5166 5.77855 14.8959 6.60575 16.0443C7.43296 17.1927 8.60005 18.0523 9.9422 18.5015H10.0498C10.1415 18.5015 10.2294 18.4651 10.2943 18.4002C10.3591 18.3354 10.3955 18.2475 10.3955 18.1558V17.9944C10.3958 17.8514 10.3536 17.7115 10.2742 17.5925C10.1949 17.4735 10.082 17.3807 9.94988 17.3259C8.90464 16.904 8.00932 16.1794 7.37885 15.245C6.74838 14.3107 6.41153 13.2092 6.41153 12.082C6.41153 10.9548 6.74838 9.85338 7.37885 8.91901C8.00932 7.98464 8.90464 7.26001 9.94988 6.83811C10.0814 6.78469 10.194 6.69331 10.2734 6.57562C10.3528 6.45794 10.3953 6.31928 10.3955 6.17734V6.00062C10.396 5.94873 10.384 5.89749 10.3605 5.85124C10.337 5.80499 10.3026 5.76509 10.2604 5.73493C10.2182 5.70477 10.1693 5.68524 10.1179 5.67799C10.0665 5.67074 10.0142 5.67598 9.96525 5.69328C8.61756 6.13899 7.44455 6.998 6.61285 8.14832C5.78115 9.29863 5.33304 10.6818 5.33216 12.1012ZM18.8703 12.1012C18.8678 10.6872 18.4216 9.30964 17.5945 8.16274C16.7674 7.01584 15.6012 6.15747 14.2603 5.70865H14.145C14.0492 5.70865 13.9574 5.74669 13.8897 5.81442C13.8219 5.88214 13.7839 5.97399 13.7839 6.06977V6.18502C13.787 6.33321 13.8329 6.47734 13.9161 6.60003C13.9992 6.72273 14.1161 6.81875 14.2526 6.87652C15.2955 7.29966 16.1883 8.02434 16.817 8.95783C17.4456 9.89133 17.7814 10.9912 17.7814 12.1166C17.7814 13.242 17.4456 14.3419 16.817 15.2754C16.1883 16.2089 15.2955 16.9335 14.2526 17.3567C14.1187 17.4151 14.0042 17.5104 13.9226 17.6315C13.8409 17.7526 13.7955 17.8945 13.7916 18.0405V18.1711C13.7922 18.2281 13.8064 18.2841 13.8328 18.3345C13.8592 18.385 13.8972 18.4285 13.9437 18.4615C13.9901 18.4944 14.0437 18.5159 14.1001 18.5242C14.1564 18.5325 14.214 18.5274 14.268 18.5092C15.6099 18.0582 16.7762 17.197 17.6021 16.0471C18.4279 14.8972 18.8716 13.5169 18.8703 12.1012Z" fill="white"/>
</g>
</g>
<defs>
<clipPath id="clip0_1_3738">
<rect width="24.5869" height="24.5869" fill="white"/>
</clipPath>
<clipPath id="clip1_1_3738">
<rect width="24.5869" height="24.5869" fill="white"/>
</clipPath>
</defs>
</svg>
