<svg width="36" height="37" viewBox="0 0 36 37" fill="none" xmlns="http://www.w3.org/2000/svg">
<g clip-path="url(#clip0_34_6753)">
<path d="M9.00391 15.9282H15.0011" stroke="url(#paint0_linear_34_6753)" stroke-width="0.805556" stroke-linecap="round" stroke-linejoin="round"/>
<path d="M31.2439 17.4275H27.3419C24.6667 17.4275 22.498 19.4413 22.498 21.9254C22.498 24.4096 24.6667 26.4233 27.3419 26.4233H31.2439C31.3689 26.4233 31.4314 26.4233 31.4841 26.4201C32.2926 26.3709 32.9367 25.7729 32.9897 25.0221C32.9931 24.9731 32.9931 24.9151 32.9931 24.7991V19.0517C32.9931 18.9357 32.9931 18.8777 32.9897 18.8287C32.9367 18.078 32.2926 17.4799 31.4841 17.4307C31.4314 17.4275 31.3689 17.4275 31.2439 17.4275Z" stroke="url(#paint1_linear_34_6753)" stroke-width="0.805556"/>
<path d="M31.4423 17.4277C31.3257 14.6205 30.9499 12.8994 29.7382 11.6877C27.9816 9.93115 25.1545 9.93115 19.5002 9.93115H15.0023C9.34803 9.93115 6.52091 9.93115 4.76436 11.6877C3.00781 13.4442 3.00781 16.2714 3.00781 21.9256C3.00781 27.5799 3.00781 30.407 4.76436 32.1635C6.52091 33.9201 9.34803 33.9201 15.0023 33.9201H19.5002C25.1545 33.9201 27.9816 33.9201 29.7382 32.1635C30.9499 30.9518 31.3257 29.2307 31.4423 26.4235" stroke="url(#paint2_linear_34_6753)" stroke-width="0.805556"/>
<path d="M9.00391 9.93103L14.6046 6.21744C16.1818 5.17166 18.3185 5.17166 19.8957 6.21744L25.4963 9.93103" stroke="url(#paint3_linear_34_6753)" stroke-width="0.805556" stroke-linecap="round"/>
<path d="M26.9824 21.9253H26.9974" stroke="url(#paint4_linear_34_6753)" stroke-width="0.805556" stroke-linecap="round" stroke-linejoin="round"/>
</g>
<defs>
<linearGradient id="paint0_linear_34_6753" x1="11.401" y1="16.1521" x2="12.8009" y2="17.1864" gradientUnits="userSpaceOnUse">
<stop stop-color="white"/>
<stop offset="1" stop-color="#999999"/>
</linearGradient>
<linearGradient id="paint1_linear_34_6753" x1="26.6928" y1="19.4415" x2="30.4034" y2="19.9748" gradientUnits="userSpaceOnUse">
<stop stop-color="white"/>
<stop offset="1" stop-color="#999999"/>
</linearGradient>
<linearGradient id="paint2_linear_34_6753" x1="14.373" y1="15.3018" x2="24.4194" y2="16.7688" gradientUnits="userSpaceOnUse">
<stop stop-color="white"/>
<stop offset="1" stop-color="#999999"/>
</linearGradient>
<linearGradient id="paint3_linear_34_6753" x1="15.5959" y1="6.4401" x2="20.5387" y2="8.6728" gradientUnits="userSpaceOnUse">
<stop stop-color="white"/>
<stop offset="1" stop-color="#999999"/>
</linearGradient>
<linearGradient id="paint4_linear_34_6753" x1="26.9883" y1="22.1492" x2="26.9937" y2="22.1492" gradientUnits="userSpaceOnUse">
<stop stop-color="white"/>
<stop offset="1" stop-color="#999999"/>
</linearGradient>
<clipPath id="clip0_34_6753">
<rect width="36" height="37" fill="white"/>
</clipPath>
</defs>
</svg>
